<?xml version="1.0" encoding="UTF-8"?>
<!DOCTYPE svg PUBLIC "-//W3C//DTD SVG 1.1//EN" "http://www.w3.org/Graphics/SVG/1.1/DTD/svg11.dtd">
<!-- Creator: CorelDRAW 2019 (64-Bit) -->
<svg xmlns="http://www.w3.org/2000/svg" xml:space="preserve" width="190.923mm" height="44.8628mm" version="1.1" style="shape-rendering:geometricPrecision; text-rendering:geometricPrecision; image-rendering:optimizeQuality; fill-rule:evenodd; clip-rule:evenodd"
viewBox="0 0 191.6877 45.0425"
 xmlns:xlink="http://www.w3.org/1999/xlink"
 xmlns:xodm="http://www.corel.com/coreldraw/odm/2003">
 <defs>
  <style type="text/css">
   <![CDATA[
    .fil13 {fill:#FEFEFE}
    .fil4 {fill:#FED30C}
    .fil10 {fill:#FFD209}
    .fil0 {fill:#F18818}
    .fil1 {fill:#E42724}
    .fil5 {fill:#FAD20C}
    .fil18 {fill:#F9CE20}
    .fil29 {fill:#F8CC12}
    .fil9 {fill:#FBFCF9}
    .fil12 {fill:#FBFBF5}
    .fil21 {fill:#F9F5F8}
    .fil25 {fill:#DF8322}
    .fil7 {fill:#E4861D}
    .fil31 {fill:#F2D030}
    .fil26 {fill:#DA8825}
    .fil35 {fill:#D47C1B}
    .fil24 {fill:#E9CB25}
    .fil19 {fill:#E8C635}
    .fil36 {fill:#BC2322}
    .fil46 {fill:#D88538}
    .fil27 {fill:#CB7A2B}
    .fil47 {fill:#D96B64}
    .fil16 {fill:#CEB232}
    .fil54 {fill:#9B2821}
    .fil32 {fill:#EADAE6}
    .fil17 {fill:#B99628}
    .fil34 {fill:#B6712C}
    .fil14 {fill:#907319}
    .fil33 {fill:#72531C}
    .fil50 {fill:#6A391C}
    .fil51 {fill:#A96A35}
    .fil55 {fill:#8C5427}
    .fil23 {fill:#5B381C}
    .fil28 {fill:#705A20}
    .fil30 {fill:#4C331B}
    .fil53 {fill:#A06C56}
    .fil52 {fill:#B3B0AD}
    .fil42 {fill:#ADAB9E}
    .fil44 {fill:#A0999D}
    .fil48 {fill:#918E8F}
    .fil22 {fill:#88857C}
    .fil41 {fill:#6C6868}
    .fil45 {fill:#534C4D}
    .fil40 {fill:#352E30}
    .fil15 {fill:#231B1E}
    .fil3 {fill:#231B1E}
    .fil2 {fill:#211B1F}
    .fil43 {fill:#2E203B}
    .fil39 {fill:#33274C}
    .fil11 {fill:#473185}
    .fil6 {fill:#463182}
    .fil8 {fill:#463081}
    .fil49 {fill:#38285C}
    .fil20 {fill:#32234A}
    .fil38 {fill:#1F1C21}
    .fil37 {fill:#271F32}
   ]]>
  </style>
 </defs>
 <g id="Layer_x0020_1">
  <metadata id="CorelCorpID_0Corel-Layer"/>
  <g id="_890563200">
   <path class="fil0" d="M96.3411 18.8487l2.1209 0.1131 0.0539 2.2068c0.5015,0.2322 1.4935,0.0921 2.1518,0.1179l0.0262 6.7889 -12.3816 -0.0002c-0.2348,-0.1514 -0.1316,0.0145 -0.2631,-0.3321 -0.1854,-0.4877 -0.0672,-1.0962 -0.0923,-1.6189 -0.9568,-0.2872 -1.2091,0.1906 -1.7861,-0.2459l-0.2429 -0.1415 -0.0761 -2.4033 -1.9545 0.0054 -0.0131 -6.8257 12.3443 -0.0149 0.1125 2.3504zm-15.694 -1.7462l0 0 0.6623 1.3575 -6.2618 3.6798c0.0032,0.6016 0.1967,0.4092 0.6696,0.8726l4.3699 2.0372 -0.7131 1.755 0.1201 0.5265 0.4681 0.039c0.6058,-0.0217 0.3528,0.0973 0.7767,-0.1648l0.1755 0.4818c0.9406,0.1396 1.0156,0.2028 1.3772,0.8462 -0.2369,0.5729 -0.3606,0.6324 -0.6466,1.1682l0.3487 0.31 0.9237 0.528c-0.2041,1.0657 -1.1299,1.9905 -1.367,2.8066l-0.0235 0.7172c-0.3127,0.3698 -0.4784,0.5751 -1.0035,0.6932l-0.2804 0.6332 -0.551 0.1521c-0.1949,0.0823 -0.0849,-0.03 -0.2726,0.1417 -0.155,0.1419 -0.1092,0.1354 -0.1621,0.2249l-0.0947 0.7871c-0.4682,0.3126 -0.6939,0.2127 -1.2288,0.2349 -0.5739,0.1005 -1.0906,0.5247 -1.7751,0.8369 -6.9776,3.1829 -12.6572,-1.2695 -15.0367,-1.4864l-0.3624 0.0364 0.1409 0.4887c0.0988,0.6349 0.4096,0.7689 0.5506,1.4507l-31.8505 0.0102 1.0183 -2.2019 -3.2076 -0.0354 1.0048 -2.225 -2.1799 -0.0482 1.6032 -3.4006 -0.2856 -0.2176 -2.4286 0.0054 -0.0165 8.1145 -12.1039 0.0079 -0.038 -2.2287 -2.1158 -0.0258 -0.0404 -2.2213 -2.1402 -0.0206 -0.0549 -26.0546c1.3026,-0.2907 13.8214,-0.1728 15.141,0.1184 3.2431,0.7154 4.2794,2.0701 5.8276,3.7608 0.4238,0.4625 0.7021,0.5692 1.0966,0.939 1.0724,1.0061 1.203,1.841 1.764,2.0912 0.842,0.0921 0.3966,-0.0742 0.5579,-0.0561 0.1686,0.2643 0.2238,0.4032 0.4233,0.6951 0.3574,0.5227 0.4121,0.4209 0.2954,1.0569 -0.0175,0.3407 -0.2348,0.1209 0.0925,0.2953l0.7741 0.4978c0.2455,-0.2313 5.0986,-9.6771 5.4671,-10.5981 0.3175,0.2009 0.0638,0.0232 0.2988,0.2434 0.0327,0.0306 0.1403,0.1722 0.2593,0.2787 0.8611,0.466 0.2762,-0.0265 0.7418,0.8386l0.3232 -0.0541 0.3728 -0.3157 1.0091 1.7278c0.1938,0.1439 0.1343,-0.2563 0.5288,0.6371l0.5266 -0.0397 0.9485 -1.9142c0.088,0.0528 0.1299,0.0576 0.1414,0.1101 0.0114,0.0521 0.0662,0.0641 0.0813,0.083l4.7069 8.4984c0.7965,0 0.1832,-0.0079 0.6394,0.6398 0.1817,0.258 0.465,0.381 0.6089,0.5949 0.2806,0.4169 0.5437,1.522 0.5545,2.0137 0.0681,0.5019 0.7984,1.8601 1.1478,2.2423 0.3804,-4.6135 1.1936,-7.2124 4.2385,-10.3834l0.4166 -0.5684c0.0593,-0.7389 0.3589,-0.8249 1.0637,-0.8693 0.4115,-0.0752 1.7358,-1.0011 2.4773,-1.351 3.2163,-1.5175 6.9681,-1.6638 10.2524,-0.5414 1.3935,0.4763 4.2829,1.7961 5.4331,2.5618 0.8654,0.576 1.555,1.1935 2.2088,1.8725l1.82 2.1491 0.4711 0.0767 0.1998 1.366 -0.7991 0.296 -0.079 0.394zm99.781 -7.3783l0 0 -0.0482 2.1557 2.6089 0.0521 0.022 26.2641 -75.648 0.0172 -0.0398 -2.1675 -2.5427 -0.0193 -0.0937 -2.2545 -2.0132 -0.0767 -0.0262 -27.0664c0.762,0.3556 0.9624,1.0979 1.4719,1.1934l0.3131 0.1771c0.4159,-0.6401 -0.0698,-0.4459 0.6612,-0.4641l0.2035 0.4719c0.1148,0.3142 0.1051,0.2494 0.4019,0.5791l1.6448 1.5457 0.0297 -2.9587c0.2959,0.1677 0.1459,0.0852 0.4053,0.2851l0.4006 0.296c0.5264,0.1349 0.6103,0.1288 0.9115,0.4281 0.3528,0.3505 0.479,0.3694 0.4236,0.9333 0.0954,0.3326 -0.375,0.0607 0.2491,0.3113l0.4415 0.4371c0.2117,0.7037 -0.0507,0.1607 0.287,0.2604 0.7759,0.1712 1.5188,0.3028 1.2497,1.2848 0.2549,0.6485 4.9795,5.3149 5.243,5.489l0.6508 -0.6848c0.1038,-0.9014 0.07,-0.9174 0.9029,-1.0114 0.4562,-0.1227 4.4562,-4.6111 5.2791,-5.414 0.1399,-0.1361 0.2664,-0.2555 0.3819,-0.4049 0.0267,-0.0344 0.0993,-0.1363 0.1202,-0.1701 0.1686,-0.2699 0.0515,-0.0173 0.1275,-0.2653 0.1176,-0.5689 -0.1481,-0.1558 0.2815,-0.6122 0.365,-0.3879 0.1295,-0.1706 0.5621,-0.2903l2.1041 -2.0961 0.3838 -0.2948c0.0806,0.5366 0.0707,0.9959 0.0677,1.5392 -0.01,1.9078 -0.1309,1.2291 0.2751,1.4261 0.2005,-0.3862 0.002,0.0337 0.2,-0.2923 0.2069,-0.3406 0.0908,-0.0574 0.194,-0.3638 0.0804,-0.5666 0.1083,-0.5782 0.7671,-0.5394 0.2412,0.6785 0.1354,1.37 0.1185,2.1182l0.6065 -0.2378c0.5898,-0.2657 0.858,-1.0169 1.554,-1.3261l0.0241 17.5419 2.0141 -3.8331 0.0308 -0.5057 0.3148 -0.1004c1.3642,-2.0897 6.8964,-14.0316 7.6742,-14.637l1.0901 1.9912c0.3571,-0.3638 0.3435,-0.275 0.3974,-0.7941 0.1365,-0.3361 -0.1033,-0.1135 0.2385,-0.323 0.2999,0.1429 0.3891,0.1942 0.6042,0.5241 0.2668,0.4088 0.2496,0.3458 0.2224,0.8126 0.0249,0.3738 0.1381,0.656 0.4319,0.8929 0.1453,0.1196 0.3494,0.2513 0.4674,0.3723 0.0309,-0.0322 0.0755,-0.1228 0.0933,-0.096l0.431 -0.4235 0.6766 -1.2316c0.0934,-0.2005 0.4395,-0.9014 0.4395,-0.1472 2.2927,3.9426 5.4289,10.2257 7.7758,14.7 0.2,0.3814 0.3412,0.6582 0.5327,1.0326 0.2753,0.539 0.3201,0.7489 0.7271,1.0547l0.0314 -18.6128c0.5976,0.4751 0.9929,1.1435 1.4759,1.4441l0.503 -0.0012c0.1665,-0.1201 -0.2961,-0.1742 0.5367,-0.192l0.2035 0.6696c0.1475,0.4435 0.5384,0.8148 0.9206,1.2048 0.3497,0.3567 0.7708,0.9417 1.1723,1.172l0.0397 -3.1057c0.6635,0.3255 2.3443,2.7643 2.9222,3.0288 0.8032,0.0177 0.8351,0.2173 0.9064,1.0017 0.1865,0.4737 0.5361,0.7589 1.0111,1.2662 0.2976,0.3179 0.7739,1.046 1.181,1.1903l0.0266 -6.5416 11.621 -0.0451 0.4143 0.1527c-0.4217,0.702 -0.0402,1.8943 0.0544,1.9424 0.4882,0.2492 1.1593,-0.2206 1.6607,0.3403zm-175.0424 -5.638l0 0c-2.3389,0.3968 -1.8673,4.8238 -1.8673,6.2458l0.0001 24.6346c-0.0001,2.8464 -0.2567,5.1104 2.054,6.1152 1.3091,0.5694 22.1196,0.2808 24.4852,0.2808l148.1215 0c1.6217,0 6.694,0.2257 7.849,-0.2876 2.4193,-1.0753 2.0418,-3.4938 2.0413,-6.2652 -0.0001,-1.7463 0.1537,-27.5178 -0.107,-28.6117 -0.2105,-0.8836 -1.0603,-2.116 -2.0168,-2.2065l-135.6468 0.0543c-2.0024,0 -40.6353,0.1385 -42.2735,-0.0558 -1.2046,-0.1429 -1.6213,0.1766 -2.6397,0.0962z"/>
   <path class="fil1" d="M3.227 4.3585c0.1806,-0.5348 0.2499,-0.6261 0.7612,-0.8606 0.5236,-0.0944 1.1115,-0.6921 2.0373,-0.8724 1.3775,-0.2684 155.1122,-0.0861 175.4487,-0.0861 0.9443,0 1.8867,-0.003 2.8309,-0.0094 1.0983,-0.0078 1.5579,0.2837 2.3368,0.3517 0.5555,0.1106 0.8671,0.2598 1.0818,0.7982 0.6569,1.1392 1.3561,1.3371 1.4028,3.5071 0.0356,1.6611 0.002,3.3624 0.002,5.0281l0.0011 24.9492c-0.0083,2.1445 -0.1958,2.2907 -1.0535,3.6921l-0.2417 0.4542c-0.0932,0.4581 -0.2186,0.3471 -0.6449,0.4215 -0.4203,0.0857 -0.5343,0.2954 -1.0344,0.4461 -1.3267,0.3997 -2.7028,0.2218 -4.0536,0.2249 -57.54,0.1322 -115.1989,0.0102 -172.7558,0.0034 -5.5202,-0.0006 -3.4612,-0.4522 -4.9596,-0.6349 -0.6068,-0.2342 -0.8473,-0.376 -1.0699,-1.0382l0.0806 0.0287 -0.3482 -0.4816c-0.1248,-0.5966 -0.4497,-0.9108 -0.5463,-1.7411 -0.1797,-1.5439 -0.0129,-26.4995 -0.0357,-30.5611 -0.0043,-0.8131 -0.044,-1.5059 0.162,-2.173 0.1437,-0.4644 0.5371,-1.0316 0.5982,-1.4466zm1.6738 -4.0477l0 0c-1.6625,0.1643 -3.3867,1.9837 -4.0524,3.2494 -1.0618,2.0186 -0.7881,4.1257 -0.7881,6.615 0,2.4913 -0.2006,27.573 0.1306,29.3639 0.3895,2.1071 1.6794,3.5958 2.991,4.4205 1.9344,1.2163 3.7524,1.0254 6.3206,1.0252l169.6181 0.0006c1.8872,0 5.5317,0.1975 7.1782,-0.142 2.0808,-0.4292 3.4833,-1.7111 4.3317,-3.0735 1.1429,-1.8356 1.0048,-3.8547 1.0047,-6.3327 -0.0004,-2.3532 0.1477,-27.8043 -0.0524,-29.4143 -0.2789,-2.246 -1.3883,-3.7192 -2.6566,-4.7115 -1.6681,-1.3051 -3.4847,-1.3099 -6.0399,-1.3115l-162.2432 0.0005c-4.7452,0 -9.7458,0.1404 -14.4364,0.0019l-0.702 0.2542c-0.1,0.016 -0.5008,0.0408 -0.604,0.0541z"/>
   <path class="fil2" d="M133.1543 36.0641c2.5404,-0.2515 20.424,-0.0176 24.9404,-0.0451 1.3124,-0.0079 2.6235,-0.445 2.505,1.1147l-27.9146 0.0326c0.1451,-0.4833 0.2501,-0.7737 0.4692,-1.1023zm-24.6789 0.9424l0 0 -0.0669 -1.0024 22.0884 0.0039c0.1217,1.33 0.3405,1.1823 -2.3719,1.1582 -3.2866,-0.0291 -17.0421,0.1669 -18.991,-0.0005l-0.6587 -0.1592zm53.3055 -0.863l0 0c1.1903,-0.4338 15.7709,-0.1073 18.4917,-0.1641l0.0813 -22.9875 1.5928 -0.0162 0.0351 24.1626 -19.9438 0.0285c-0.2001,-0.5227 -0.4314,-0.5903 -0.2571,-1.0234zm-30.1881 0.5419l0 0 0.1415 -0.679c0.1767,0.2793 0.2299,-0.2003 0.1178,0.3203 -0.0159,0.0741 -0.2557,0.3491 -0.2592,0.3587zm27.7349 -25.7264l0 0 -0.2736 -0.4722c-0.1668,0.1975 -0.1233,-0.2582 -0.2156,0.463 -0.1513,1.1863 0.0157,23.6614 0.0557,23.9854l19.9124 0.027c0.902,-0.0086 0.1787,0.0617 0.4861,-0.3085l0.0243 -23.693c-0.327,-0.3655 -1.1195,-0.1956 -2.0794,-0.1937 -0.8367,0.0016 -1.6738,-0.0048 -2.5106,-0.0047 -1.2494,0.0002 -3.878,-0.1401 -4.9619,0.0781l-0.0088 11.476c-0.5285,-0.2529 -0.3737,-0.1608 -0.7452,-0.6247 -0.2222,-0.2774 -0.3366,-0.4433 -0.5625,-0.6892l-3.5976 -3.8454c-0.2519,-0.5744 -0.4772,-0.813 -1.0446,-1.1406 -0.1737,-0.5645 -0.6303,-0.9078 -1.1489,-1.457 -0.2472,-0.2616 -0.3454,-0.4064 -0.5805,-0.6808 -0.2926,-0.3415 -0.3879,-0.4526 -0.7177,-0.6253 -0.091,-0.2037 -0.0336,-0.2333 -0.2383,-0.4559 -0.4407,-0.4793 0.0262,-0.0451 -0.4291,-0.2824 -0.0681,-0.3144 0.0704,-0.1172 -0.2366,-0.468 -0.2176,-0.2487 -0.394,-0.2982 -0.5134,-0.358 -0.17,-0.4 -0.2068,-0.5738 -0.6144,-0.73zm-28.2443 22.8411l0 0 0.8064 -1.5169 9.1947 -18.027 0.5216 -0.9718 1.7393 -3.4217 11.7398 21.993c0.4093,0.7984 1.3347,2.3198 1.5411,3.0794l-26.126 -0.039 0.583 -1.0962zm-24.9905 -23.2898l0 0c0.3333,0.4528 0.5148,0.6036 1.0135,1.0697 0.1959,0.1829 0.3903,0.3637 0.5517,0.553l0.3152 0.5288c0.5301,0.2524 0.4549,0.1914 0.7045,0.7347 0.244,0.1029 -0.0741,-0.1284 0.3258,0.2129 0.1715,0.1465 0.0556,0.0466 0.2284,0.2322 1.4429,1.5514 6.2997,6.4601 6.8215,7.235 0.4428,0.3009 0.5128,0.3922 0.7744,0.7009 0.4644,-0.2302 0.6315,-0.4917 1.0407,-0.7317 0.1992,-0.4944 6.5796,-7.1807 6.9601,-7.3376 0.1234,-0.2592 -0.0394,-0.1325 0.2569,-0.4535 0.3657,-0.3964 0.1205,-0.1118 0.4428,-0.2765 0.1202,-0.4175 0.6837,-0.9251 1.016,-1.2445 0.4491,-0.4319 0.7704,-0.6214 0.9811,-1.1045 0.2392,-0.3847 -0.3541,-0.1663 0.4431,-0.3779 0.2963,0.6205 0.153,2.3461 0.1537,3.062l-0.0439 21.6111c-0.761,0.2355 -21.3957,0.2674 -22.4076,0.0211l0.011 -24.6943c0.7827,-0.0082 0.1572,-0.0608 0.4111,0.259zm23.4877 23.7806l0 0c1.1468,-1.47 0.963,-2.9462 0.9629,-5.1297 -0.0006,-6.0562 0.1132,-12.6371 -0.005,-18.5708 -0.4527,0.2355 -0.0467,-0.0065 -0.3339,0.2312 -0.0798,0.066 -0.1315,0.1559 -0.3118,0.3032 -0.2555,0.1362 -0.3107,0.1383 -0.4914,0.3249 -0.4004,0.4132 -0.1558,0.119 -0.3089,0.5484l-0.0612 22.3322 0.0782 0.9147c0.1309,-0.3636 0.3007,-0.5425 0.4712,-0.9542zm-25.8489 -25.0011l0 0c1.017,0.3805 0.9793,1.3501 0.9715,1.9765 -0.0856,6.8067 0.2288,14.9297 -0.0219,21.3295l-0.961 -0.053 0.0114 -23.253zm54.0143 19.5246l0 0c0.1691,-1.26 0.1683,-15.1238 0.0714,-18.1804 -0.0389,-1.2342 -0.3585,-0.9774 -0.9124,-1.6429 -0.2829,1.4915 -0.0654,12.3937 -0.0676,15.463 -0.0015,2.3319 -0.2419,2.6152 0.9086,4.3603zm-11.2625 -18.6333l0 0c-1.3548,1.8733 -0.4514,2.1588 1.5112,6.0144l9.6294 18.0586c0.1014,-0.1683 0.0496,0.1074 0.1518,-0.3976l0.037 -1.7213c0.0011,-0.9947 -0.0499,-1.0087 -0.4607,-1.7766 -0.5495,-1.0268 -0.9918,-1.8523 -1.5236,-2.8593l-8.7913 -16.6334c-0.2657,-0.4985 -0.1448,-0.4961 -0.5539,-0.6849zm16.3943 3.0569l0 0c0.9718,1.0886 5.3569,6.1606 5.8549,6.3626 0.1334,-2.4846 -0.4464,-1.9733 -2.9759,-5.0064 -0.3687,-0.4422 -3.4167,-3.98 -3.8961,-4.2258 -0.8751,1.2725 0.3033,2.07 1.0172,2.8695zm-53.0543 -0.2956l0 0 7.0044 7.3506c0.4499,-0.1648 0.674,-0.3446 0.9042,-0.8601 -0.3487,-0.6047 -8.8772,-9.4534 -9.3039,-9.6525 -0.223,2.2008 0.2676,1.9572 1.3953,3.162zm7.9667 4.7329l0 0c0.1969,0.4961 0.3274,0.6062 0.7637,0.8486l7.7569 -8.1252c0.5684,-0.6247 0.3493,-0.8996 0.3761,-1.9515 -0.7478,0.424 -1.7199,1.6566 -2.2648,2.2623l-4.4478 4.6506c-0.768,0.8668 -1.3724,1.4525 -2.1841,2.3152zm23.5795 -8.7678l0 0 -9.1466 17.9199c-0.7264,1.4003 -0.6456,1.4707 -0.6217,3.2861 0.4831,-0.4818 6.9703,-13.3317 8.2183,-15.777 0.4653,-0.9116 0.8536,-1.7269 1.3068,-2.6142 0.6023,-1.1783 1.2329,-1.5453 0.6532,-2.753 -0.0896,-0.1253 -0.0379,-0.2141 -0.1841,-0.3144l-0.2259 0.2526zm26.5275 6.3923l0 0c0.2118,0.3754 0.4515,0.681 0.8001,0.944l0.0194 -6.5771 8.4885 0.0009 0.0602 -1.1731c-0.3344,-0.4498 -1.6938,-0.2059 -2.2245,-0.2061 -1.613,-0.0003 -6.3217,-0.1021 -7.3175,0.0684 -0.1539,0.9437 -0.0603,2.5281 -0.0607,3.5445l-0.0134 2.6802c0.0267,0.6273 -0.087,0.4596 0.2479,0.7184zm-42.6065 -7.254l0 0c-0.1247,0.2478 -0.1102,0.3006 -0.3228,0.5392 -0.3048,0.3421 -0.1952,0.1957 -0.5209,0.3633 -0.076,0.248 0.0411,-0.0046 -0.1275,0.2653 -0.0209,0.0337 -0.0935,0.1356 -0.1202,0.1701 -0.1156,0.1494 -0.2421,0.2688 -0.3819,0.4049 -0.8229,0.8029 -4.8228,5.2913 -5.2791,5.414l-0.9029 1.0114 -0.6508 0.6848c-0.2636,-0.1741 -4.9881,-4.8405 -5.243,-5.489 -0.2932,-0.1694 -0.0655,0.0111 -0.4191,-0.2806 -0.1568,-0.1291 -0.1712,-0.1587 -0.314,-0.3087 -0.2643,-0.2774 -0.3304,-0.3632 -0.5167,-0.6955 -0.3377,-0.0997 -0.0753,0.4433 -0.287,-0.2604 -0.4137,-0.2066 -0.2545,-0.0745 -0.4415,-0.4371 -0.6241,-0.2506 -0.1537,0.0213 -0.2491,-0.3113 -0.3684,-0.1822 -0.1134,-0.0019 -0.4482,-0.2854 -0.0882,-0.0747 -0.1729,-0.1823 -0.3075,-0.3204 -0.3692,-0.3792 -0.3552,-0.3392 -0.5794,-0.7556l-0.4006 -0.296c-0.2594,-0.1999 -0.1094,-0.1175 -0.4053,-0.2851l-0.0297 2.9587 -1.6448 -1.5457c-0.2968,-0.3297 -0.2871,-0.265 -0.4019,-0.5791 -0.4233,-0.1933 -0.1074,0.2483 -0.4828,-0.3214l-0.2667 0.7914 -0.4284 -0.6549c-0.5094,-0.0955 -0.7098,-0.8377 -1.4719,-1.1934l0.0262 27.0664 2.0132 0.0767 0.0937 2.2545 2.5427 0.0193 0.0398 2.1675 75.648 -0.0172 -0.022 -26.2641 -2.6089 -0.0521 0.0482 -2.1557 -2.0965 -0.0486 -0.0329 -2.3868 -11.621 0.0451 -0.0266 6.5416c-0.4071,-0.1444 -0.8834,-0.8725 -1.181,-1.1903 -0.475,-0.5072 -0.8246,-0.7925 -1.0111,-1.2662 -0.2111,-0.1399 -0.1339,-0.0739 -0.3167,-0.2233 -0.0131,-0.0107 -0.2205,-0.1998 -0.2441,-0.2259 -0.3487,-0.3887 -0.19,-0.2389 -0.3457,-0.5525 -0.5779,-0.2645 -2.2586,-2.7033 -2.9222,-3.0288l-0.0397 3.1057c-0.4015,-0.2303 -0.8226,-0.8153 -1.1723,-1.172 -0.3821,-0.3901 -0.7731,-0.7613 -0.9206,-1.2048l-0.2531 0.0171 -0.4554 -0.073c-0.0279,0.0098 -0.0722,0.0259 -0.0853,0.0235 -0.4255,-0.0776 -0.3211,-0.1905 -0.4494,-0.444 -0.483,-0.3006 -0.8783,-0.969 -1.4759,-1.4441l-0.0314 18.6128c-0.407,-0.3058 -0.4518,-0.5158 -0.7271,-1.0547 -0.1916,-0.3744 -0.3327,-0.6512 -0.5327,-1.0326 -2.347,-4.4744 -5.4831,-10.7574 -7.7758,-14.7l-0.4395 0.1472 -0.6766 1.2316 -0.59 1.0746 -0.4017 -0.9274c-0.2939,-0.2368 -0.407,-0.5191 -0.4319,-0.8929l-0.46 -0.5812c-0.1109,-0.2057 -0.1598,-0.3335 -0.2493,-0.5465l-0.3557 0.114c-0.0539,0.5191 -0.0403,0.4303 -0.3974,0.7941l-1.0901 -1.9912c-0.7778,0.6054 -6.31,12.5473 -7.6742,14.637 -0.1058,0.381 -0.0159,0.1348 -0.1626,0.4124 -0.015,0.0282 -0.0744,0.1262 -0.0864,0.1021 -0.0121,-0.0239 -0.0651,0.0602 -0.0965,0.0916l-2.0141 3.8331 -0.0241 -17.5419c-0.696,0.3092 -0.9642,1.0604 -1.554,1.3261 -0.2542,0.5483 -0.4027,0.6919 -0.9058,1.0078l-0.0641 -2.6364c-0.2694,0.1893 -0.2249,0.1427 -0.5222,0.2876 -0.1032,0.3063 0.013,0.0232 -0.194,0.3638 -0.198,0.326 0.0005,-0.094 -0.2,0.2923l-0.4256 0.2728c-0.2597,-1.634 0.3189,-2.6189 -0.301,-2.9433l-2.1041 2.0961z"/>
   <path class="fil2" d="M41.6724 10.488l0.3102 -0.6477c0.1381,0.1266 0.0524,-0.0984 0.3076,0.3531 0.1662,0.2945 0.0012,-0.0089 0.1611,0.4516 0.3285,0.3162 2.4137,4.2076 2.497,4.676 0.141,0.1371 0.1044,0.043 0.3137,0.3668 0.1173,0.1814 0.1282,0.2509 0.2117,0.4142 0.1958,0.3819 0.2682,0.5017 0.3999,0.9355 0.2075,0.1566 9.4842,17.2256 9.5976,17.8805l-26.3245 0.018c0.2901,-1.1045 12.4348,-24.3768 12.5257,-24.4479zm16.7542 21.5519l0 0c0.015,0.0162 0.5366,0.7033 0.6628,0.8834 0.2742,0.3915 0.606,0.7089 0.813,1.0409 0.3177,0.1521 0.1543,-0.2992 0.4318,0.5094l-0.5215 -0.2456c-0.0292,-0.0206 -0.0747,-0.0671 -0.0985,-0.0854 -0.0243,-0.0189 -0.0641,-0.0618 -0.0959,-0.0931 -0.6631,-0.4775 -0.725,-0.7336 -1.133,-1.4809 -0.0815,-0.1494 -0.0535,-0.1508 -0.1601,-0.2888 -0.316,-0.4088 0.1043,-0.0092 -0.1836,-0.1385l-0.3462 -0.9438c0.3849,0.3283 0.378,0.2586 0.6311,0.8423zm8.1744 5.099l0 0c-1.0249,-0.2513 -1.1706,-0.4654 -1.9612,-0.8619l1.8745 0.3059c0.6788,0.2545 0.0912,0.0326 0.3957,0.2202 2.7488,0.1112 3.9774,0.2487 6.5072,-0.532 1.1811,-0.3646 3.9664,-1.7767 4.4983,-2.6125l0.593 -0.5098c0.9711,-0.4796 1.4608,-1.629 2.2304,-2.4267l0.799 0.3216c-0.532,2.0142 -3.4341,4.6158 -5.5126,5.6242 -2.5953,1.259 -6.5053,1.5738 -9.4242,0.4711zm-35.9375 -7.8087l0 0 0.1683 -0.1922 0.1573 -0.3159c-0.798,-0.1356 -0.1506,-0.0725 -0.4154,0.1381l-0.082 0.2033c-1.1915,0.4176 -0.9821,0.3628 -1.5281,1.4159 -0.3304,0.6373 -0.7542,1.361 -1.0226,2.0398 0.1353,0.0949 0.069,0.1236 0.3939,0.1722 0.0552,0.0081 0.2479,0.0087 0.3044,0.0031 0.3802,-0.0388 0.3414,-0.0615 0.5731,-0.2732l1.4511 -3.1912zm41.4702 -5.4818l0 0c1.6564,-0.9257 1.421,-0.5826 3.2943,0.2662 0.8046,0.3647 2.8044,1.1082 3.2371,1.5944l-0.4597 0.9104c-0.6239,-0.1381 -5.717,-2.4325 -6.0717,-2.771zm-47.9534 5.2502l0 0c1.9028,-0.1558 3.0693,0.0949 4.7512,-0.4246 1.0711,-0.3308 2.5229,-1.3473 3.0671,-2.1201 1.4113,-2.0043 2.1816,-5.7405 1.4637,-7.6879 -0.2745,-0.7449 -0.0325,-0.1601 -0.2494,-0.4612 -0.0285,4.4694 -2.187,7.9269 -6.0931,9.0822 -1.9523,0.5774 -2.5438,0.3054 -4.5039,0.5007 -0.3382,1.4526 -0.0723,6.1713 -0.0867,7.9697 -1.6091,0.0825 -3.3839,0.0054 -5.0244,0.0056 -3.0743,0.0003 -3.8374,-0.3832 -3.4519,1.1384 1.1173,0.2348 8.6469,0.1672 10.0137,0.0198 0.2245,-1.8979 -0.3006,-6.6094 0.1138,-8.0227zm-2.5724 -2.2765l0 0c0.6669,0.1795 3.0883,0.0971 3.8813,-0.0107 6.5405,-0.889 8.2761,-8.7213 5.1767,-12.6953 -0.7929,-1.0164 -3.3792,-3.1039 -5.3037,-2.9431 -0.0335,-0.0252 -0.0801,-0.1086 -0.1007,-0.0753l-0.5273 -0.1768c-1.3184,-0.1966 -12.4326,-0.0248 -12.8778,0.0302l-0.0245 23.976 9.688 0.0528 0.0881 -8.1576zm48.6174 -3.7774l0 0c0.7726,0.7549 3.0967,-1.2077 4.7948,-2.1106 0.8406,-0.4468 4.4227,-2.3596 4.8046,-2.9139l-0.4614 -0.8089c-0.7945,0.1466 -8.6401,4.6647 -9.4586,5.1395l-0.4504 0.429 0.7711 0.265zm9.5977 5.5939l0 0c-0.8317,-0.429 -12.2091,-5.2668 -12.6921,-5.9112 1.9725,-1.3319 11.9968,-6.5 12.6292,-7.2176 -1.0111,-2.293 -4.6795,-4.7516 -7.5249,-5.4427 -1.9544,-0.4746 -3.9833,-0.484 -5.9413,-0.0673 -1.1381,0.2425 -4.0936,1.3032 -4.3847,2.0503 -0.5311,0.2337 -0.4298,0.1698 -0.8731,0.5465 -0.1255,0.1066 -0.2265,0.1717 -0.3412,0.2795 -0.3467,0.3264 -0.1584,0.0914 -0.3782,0.4991 -0.2756,0.087 0.0141,-0.0712 -0.2623,0.1392 -0.1464,0.1114 -0.1888,0.1668 -0.3066,0.298 -0.4408,0.4912 -1.2721,1.3987 -1.3825,2.0121 -0.2,0.1505 -0.113,0.0291 -0.2849,0.2443 -0.0709,0.0886 -0.1312,0.2018 -0.1818,0.2915 -0.1987,0.3521 -0.2415,0.498 -0.3622,0.8748 -0.6155,0.578 -1.1996,3.5378 -1.259,4.7026 -0.5868,11.5593 12.0837,17.8892 20.5722,11.336 0.7083,-0.5468 2.7724,-2.4181 2.8961,-3.2875 0.4865,-0.3902 0.5919,-0.5865 0.683,-1.1231l-0.6054 -0.2244zm-34.7023 -18.5367l0 0c-1.0294,1.6294 -0.6777,2.0667 0.1707,3.5123 1.1221,1.912 11.6982,21.4279 11.8356,22.3525l-25.1866 0.0272c-0.2972,0.2943 -0.5329,0.5747 -0.6033,1.1872l28.3677 -0.0026c-0.215,-0.8477 -14.4039,-26.9303 -14.5841,-27.0766zm-10.0855 8.5206l0 0c-0.4467,1.2901 -0.3283,1.0856 -0.2986,2.5968 0.4578,-0.3902 0.6588,-0.9644 0.9357,-1.5071 0.286,-0.5602 0.5135,-0.9877 0.8025,-1.555 0.5338,-1.0481 1.0245,-2.0499 1.5803,-3.1223 0.5255,-1.0133 1.0872,-2.0567 1.6082,-3.1021 1.0936,-2.1947 1.2657,-1.9693 0.5932,-3.1589 -0.4611,0.4088 -4.7456,8.7592 -4.9602,9.5925l-0.2611 0.2561zm-8.9787 -8.75l0 0 0.4668 0.1259c-0.3692,0.2379 0.4988,0.2713 -0.5129,0.1551 -0.4518,-0.0519 -0.2254,-0.1601 -0.2771,-0.2126 -2.927,0.0525 -12.9945,-0.3156 -14.9159,-0.0172l-0.0018 22.7566 -1.1344 -0.0521 0.0002 -23.8709c2.2945,-0.2888 6.2886,-0.0512 8.7651,-0.0512 3.1738,0 5.0619,-0.2454 7.6102,1.1665zm29.6883 17.2149l0 0c0.0109,-1.7966 -2.0094,-6.2195 1.6738,-11.9929 1.7376,-2.7238 6.1169,-6.2226 8.8396,-6.1328l0.6987 -0.1394c-0.1633,-0.1301 0.2575,-0.2046 -0.3558,-0.1772 -0.8743,0.0393 -0.2136,0.0035 -0.4896,0.1738 -3.6096,-0.339 -7.9233,2.7627 -10.0012,5.9125 -2.209,3.349 -3.1163,8.9957 -0.4631,12.4399 0.1011,0.3795 0.1485,0.4787 0.2068,0.7929l0.4939 0.6918c0.0162,-0.0296 0.0695,0.0604 0.1038,0.0909 -0.0472,-1.1494 -0.1594,-0.7346 -0.3457,-0.869 -0.0286,-0.1268 -0.0725,-0.3586 -0.1209,-0.4656 -0.1172,-0.2589 -0.1138,-0.1818 -0.2403,-0.3249zm-21.157 -9.974l0 0 -0.2938 0.5887c-0.328,-0.3865 -0.314,-0.546 -0.4803,-1.0865 -0.3273,-0.1744 -0.1099,0.0454 -0.0925,-0.2953l-1.2766 -1.6959c-0.561,-0.2502 -0.6917,-1.0851 -1.764,-2.0912 -0.3945,-0.3699 -0.6728,-0.4765 -1.0966,-0.939 -1.5483,-1.6907 -2.5845,-3.0455 -5.8276,-3.7608 -1.3196,-0.2912 -13.8384,-0.409 -15.141,-0.1184l0.0549 26.0546 2.1402 0.0206 0.0404 2.2213 2.1158 0.0258 0.038 2.2287 12.1039 -0.0079 0.0165 -8.1145 2.4286 -0.0054 0.5023 -0.213c-0.0104,0.8589 0.0459,0.0903 -0.2167,0.4306l-1.6032 3.4006 2.1799 0.0482 -1.0048 2.225 3.2076 0.0354 -1.0183 2.2019 31.8505 -0.0102c-0.141,-0.6818 -0.4518,-0.8158 -0.5506,-1.4507 -0.191,-0.145 -0.2436,0.1267 -0.6053,-0.9905 1.0107,0.2491 0.6435,0.2495 0.8269,0.4653 2.3795,0.217 8.0591,4.6693 15.0367,1.4864 0.6845,-0.3122 1.2012,-0.7364 1.7751,-0.8369 0.1418,-0.2176 0.0362,-0.119 0.2284,-0.3017 0.072,-0.0684 0.2445,-0.1862 0.3582,-0.2717 0.4503,-0.3376 0.2779,-0.2544 0.7368,-0.4487 0.0529,-0.0895 0.0071,-0.083 0.1621,-0.2249 0.1876,-0.1717 0.0777,-0.0593 0.2726,-0.1417 0.1223,-0.2476 0.0189,-0.2079 0.3371,-0.5053 0.3342,-0.3121 0.2053,-0.1687 0.4943,-0.28 0.1067,-0.45 0.1729,-0.523 0.6599,-1.0679 0.0237,-0.0267 0.0528,-0.0636 0.0771,-0.089l0.29 -0.2535c0.237,-0.8161 1.1628,-1.7409 1.367,-2.8066l-0.9237 -0.528c-1.2289,-0.1883 -0.3703,-0.6459 -0.1233,-1.6687 -1.1691,-0.4303 -1.5482,-0.6157 -1.9082,-0.9728l-0.4681 -0.039 -0.358 -0.1775 0.2379 -0.349 0.7131 -1.755 -4.3699 -2.0372c-0.2425,-0.0677 -0.4526,-0.0751 -0.7072,-0.2013 -0.6783,-0.3361 -0.2365,-0.1301 -0.4696,-0.4709l0.5072 -0.2004 6.2618 -3.6798 -0.6623 -1.3575c-0.246,-0.1803 -0.0873,0.1516 -0.363,-0.3373 0.2016,-0.4529 0.5181,-0.4868 0.9478,-0.7844 -0.1131,-0.544 -0.1985,-0.4379 -0.3775,-1.0109l-1.82 -2.1491c-0.6538,-0.679 -1.3435,-1.2965 -2.2088,-1.8725 -1.1502,-0.7658 -4.0396,-2.0855 -5.4331,-2.5618 -3.2843,-1.1225 -7.0361,-0.9761 -10.2524,0.5414 -0.7415,0.3499 -2.0657,1.2758 -2.4773,1.351 -0.1774,0.2714 -0.0402,0.1022 -0.2421,0.3216 -0.0147,0.0158 -0.2115,0.1974 -0.2523,0.2296 -0.4974,0.3926 -0.1255,0.1338 -0.5694,0.3181l-0.4166 0.5684c-3.0449,3.1711 -3.8581,5.7699 -4.2385,10.3834 -0.3494,-0.3822 -1.0797,-1.7404 -1.1478,-2.2423 -0.567,-0.4425 -1.5357,-2.4789 -1.8028,-3.2484l-4.7069 -8.4984c-0.0152,-0.019 -0.0699,-0.0309 -0.0813,-0.083 -0.0114,-0.0525 -0.0534,-0.0573 -0.1414,-0.1101l-0.9485 1.9142 -0.4683 0.6446 -0.5871 -1.2421 -1.0091 -1.7278 -0.3728 0.3157 -0.1995 0.6149c-0.5042,-0.2502 -0.7095,-0.934 -0.8655,-1.3994 -0.1191,-0.1065 -0.2266,-0.2481 -0.2593,-0.2787 -0.235,-0.2202 0.0187,-0.0425 -0.2988,-0.2434 -0.3685,0.921 -5.2216,10.3668 -5.4671,10.5981z"/>
   <path class="fil3" d="M3.7148 40.1966c0.6177,0.2383 0.3905,-0.2154 0.5951,0.6015 -0.9914,-0.0086 -0.4478,0.2615 -0.5951,-0.6015zm1.6708 -36.1104l0 0c-2.3389,0.3968 -1.8673,4.8238 -1.8673,6.2458l0.0001 24.6346c-0.0001,2.8464 -0.2567,5.1104 2.054,6.1152 1.3091,0.5694 22.1196,0.2808 24.4852,0.2808l148.1215 0c1.6217,0 6.694,0.2257 7.849,-0.2876 2.4193,-1.0753 2.0418,-3.4938 2.0413,-6.2652 -0.0001,-1.7463 0.1537,-27.5178 -0.107,-28.6117 -0.2105,-0.8836 -1.0603,-2.116 -2.0168,-2.2065 -0.6172,-0.6937 -19.8821,-0.3808 -22.202,-0.3808l-155.8108 0.002c-0.7959,0.0009 -1.9208,-0.1247 -2.5472,0.4735zm-1.3974 -0.5883l0 0c-0.2028,0.5383 -0.2088,0.5158 -0.7612,0.8606 -0.061,0.415 -0.4545,0.9822 -0.5982,1.4466 -0.206,0.6671 -0.1664,1.3598 -0.162,2.173 0.0229,4.0616 -0.144,29.0173 0.0357,30.5611 0.0966,0.8303 0.4215,1.1446 0.5463,1.7411 0.3428,0.1857 0.2073,0.0561 0.3482,0.4816l-0.0806 -0.0287c0.441,0.2235 0.2325,0.0732 0.6124,0.4357 0.335,0.3195 0.2275,0.1625 0.4574,0.6025 1.4984,0.1827 -0.5606,0.6343 4.9596,0.6349 57.5569,0.0068 115.2159,0.1288 172.7558,-0.0034 1.3508,-0.0031 2.7269,0.1748 4.0536,-0.2249 0.5001,-0.1507 0.6142,-0.3603 1.0344,-0.4461 0.1714,-0.2226 -0.0126,-0.1566 0.2524,-0.31 0.3537,-0.2048 -0.1819,-0.036 0.3925,-0.1114l-0.0233 -0.2445c0.0494,-0.4648 -0.0145,-0.0094 0.265,-0.2097 0.8577,-1.4014 1.0452,-1.5477 1.0535,-3.6921l-0.0011 -24.9492c0,-1.6656 0.0336,-3.3669 -0.002,-5.0281 -0.0467,-2.17 -0.7459,-2.3678 -1.4028,-3.5071l-0.9998 -0.6926c-0.0152,-0.0598 -0.0546,-0.0704 -0.082,-0.1056 -0.7789,-0.068 -1.2385,-0.3595 -2.3368,-0.3517 -0.9442,0.0064 -1.8866,0.0094 -2.8309,0.0094 -20.3364,0 -174.0712,-0.1822 -175.4487,0.0861 -0.9258,0.1803 -1.5137,0.778 -2.0373,0.8724z"/>
   <path class="fil4" d="M120.3776 32.3175l5.0568 -0.0673 0.0788 -4.4495 1.0469 -0.0512 0.0182 5.5922 -6.2209 0.0947 -0.8485 -0.0515c0.2182,-0.3862 0.0088,-0.0797 0.4964,-0.4581l-0.0356 -0.686c0.3946,-0.1351 0.1121,-0.117 0.408,0.0767zm7.1478 -21.6884l0 0c-0.2107,0.4831 -0.532,0.6726 -0.9811,1.1045 -0.3322,0.3194 -0.8958,0.827 -1.016,1.2445 -0.1465,0.5253 -0.1348,0.5716 -0.6997,0.73 -0.3804,0.1568 -6.7609,6.8432 -6.9601,7.3376 -0.1341,0.4904 -0.2797,0.6906 -0.4886,0.9667l-0.9775 0.0591c-0.3097,-0.6666 -0.2844,-0.2003 -0.3489,-0.995 -0.5218,-0.7749 -5.3787,-5.6836 -6.8215,-7.235 -0.1728,-0.1856 -0.0569,-0.0857 -0.2284,-0.2322 -0.3999,-0.3414 -0.0818,-0.11 -0.3258,-0.2129 -0.574,-0.1615 -0.6504,-0.1206 -0.7045,-0.7347l-0.3152 -0.5288c-0.1614,-0.1894 -0.3558,-0.3701 -0.5517,-0.553 -0.4988,-0.4661 -0.6802,-0.6169 -1.0135,-1.0697 -0.2673,0.1343 -0.2574,-0.1881 -0.2429,1.233 0.0054,0.5228 0.0006,1.0471 0.0004,1.5701 -0.0004,5.3964 -0.2415,17.6915 0.0496,21.4962l22.0072 0.0505 0.0521 -23.7695c-0.1577,-0.9168 0.138,-0.3804 -0.4339,-0.4612z"/>
   <path class="fil4" d="M176.7613 27.6814l1.1184 0.0428 0.0006 5.6325 -5.5165 0.0578c-1.0272,-0.0348 -0.5385,0.0183 -0.7818,-0.3299l0.003 -0.7096c-0.1657,-0.1683 -0.4464,0.4513 -0.0742,-0.3032 1.5758,-0.2391 3.3171,-0.1184 4.9833,-0.0932 -0.0056,-0.6896 -0.2988,-3.8014 0.2673,-4.2971zm-11.9102 -10.5246l0 0 -0.4538 0.0886c-0.32,-0.2886 -0.5218,-0.6521 -0.5908,-1.2291 -0.1737,-0.5645 -0.6303,-0.9078 -1.1489,-1.457 -0.2472,-0.2616 -0.3454,-0.4064 -0.5805,-0.6808 -0.2926,-0.3415 -0.3879,-0.4526 -0.7177,-0.6253l-0.5965 -0.0797 -0.0709 -0.6586c-0.0681,-0.3144 0.0704,-0.1172 -0.2366,-0.468 -0.2176,-0.2487 -0.394,-0.2982 -0.5134,-0.358l-0.6234 0.0099c-0.5672,1.3189 0.0832,0.2619 0.0717,0.7671 -0.0146,0.6252 -0.0466,-0.3326 -0.1387,0.4224 -0.0947,0.7767 0.0565,0.3425 0.0785,0.5076 0.0468,0.3493 -0.1447,0.3093 -0.1644,1.1594 -0.0441,1.9023 -0.1478,19.1402 0.0255,19.7501 0.094,0.33 0.05,0.1842 0.1587,0.3315 0.293,-0.4114 0.166,-0.4732 0.3137,-0.8918 0.0887,0.2358 0.0223,0.176 0.1109,0.4409l0.203 0.4863 18.9858 -0.0423 -0.0123 -22.8938c0.1518,-0.8473 -0.1263,-0.3043 0.366,-0.7757 -0.327,-0.3655 -1.1195,-0.1956 -2.0794,-0.1937 -0.8367,0.0016 -1.6738,-0.0048 -2.5106,-0.0047 -1.2494,0.0002 -3.878,-0.1401 -4.9619,0.0781l-0.0088 11.476c-0.5285,-0.2529 -0.3737,-0.1608 -0.7452,-0.6247 -0.2222,-0.2774 -0.3366,-0.4433 -0.5625,-0.6892l-3.5976 -3.8454z"/>
   <path class="fil5" d="M75.7732 28.4422c0.0251,-0.0463 -0.2805,-0.7833 0.6727,-0.2656 0.2337,0.1268 0.2414,0.3604 0.3698,0.6621 0.2696,0.2561 0.5942,0.2609 0.9706,0.636 -0.5716,1.2072 -1.6845,2.2444 -2.7423,2.9371 -1.5147,0.9919 -2.4121,1.0337 -4.1011,1.5682 -0.1929,0.3049 -0.0224,0.227 -0.4367,0.4079 -0.2667,0.1164 -1.3383,0.3386 -1.9304,-0.2675 -0.2866,-0.222 -0.1583,0.0449 -0.0831,-0.4496 0.0662,-0.4336 0.0776,-0.5776 0.2264,-0.8425l2.9619 -0.255c1.5319,0.1446 3.9646,-1.8588 4.5012,-2.6279 -0.3744,-0.4322 -1.2921,-0.7259 -1.8407,-0.9682 -0.7745,-0.3418 -1.3442,-0.6027 -2.0605,-0.934 -0.9425,-0.4358 -3.2593,-1.3039 -3.9563,-1.8636l0.2073 -0.7949c0.7895,-0.0352 6.1619,2.5568 7.2414,3.0573zm-6.8616 -8.1945l0 0c-0.2576,0.195 0.3859,0.1731 -0.4359,0.1558l-0.1568 -0.5272 -0.5423 0.0162c0.0868,-0.8093 0.2686,-0.9817 1.0657,-0.9834 0.7511,-0.0761 6.2625,-3.4344 7.5033,-4.0577 0.3577,0.1224 0.2152,-0.0077 0.3684,0.3783l0.2615 0.4663 -0.2358 0.1555 -7.828 4.3962zm-7.0024 -8.1973l0 0c-0.1004,0.4791 -0.1316,0.7721 -0.5114,1.0517 -0.0271,0.0201 -0.4068,0.2087 -0.4344,0.2167 -0.4207,0.1231 -0.3326,0.0758 -0.6466,0.0567 -0.2756,0.087 0.0141,-0.0712 -0.2623,0.1392 -0.1464,0.1114 -0.1888,0.1668 -0.3066,0.298 -0.4408,0.4912 -1.2721,1.3987 -1.3825,2.0121 -0.0365,0.3202 -0.0784,0.6786 -0.0625,1.0975l-0.7665 0.313c-0.6155,0.578 -1.1996,3.5378 -1.259,4.7026 -0.5868,11.5593 12.0837,17.8892 20.5722,11.336 0.7083,-0.5468 2.7724,-2.4181 2.8961,-3.2875 0.057,-0.8764 0.1929,-0.3497 0.0776,-1.3475 -0.8317,-0.429 -12.2091,-5.2668 -12.6921,-5.9112 1.9725,-1.3319 11.9968,-6.5 12.6292,-7.2176 -1.0111,-2.293 -4.6795,-4.7516 -7.5249,-5.4427 -1.9544,-0.4746 -3.9833,-0.484 -5.9413,-0.0673 -1.1381,0.2425 -4.0936,1.3032 -4.3847,2.0503z"/>
   <path class="fil5" d="M21.6687 22.3819l0.1875 -0.3225c0.8356,0.0598 0.1126,0.0004 0.4301,0.2143 0.9265,-0.0352 1.5665,-0.0009 2.3127,-0.4537 0.4741,-0.2875 1.1423,-0.9433 1.1895,-1.5598l1.065 -0.7843 0.2219 0.5797c0.004,0.0521 0.0117,0.1831 0.002,0.2123 -0.0603,0.1825 -0.0984,0.2344 -0.1612,0.3354 -0.8182,1.7028 -2.4508,3.3616 -5.175,2.6206 -0.1403,-0.2414 -0.0712,0.0268 -0.1041,-0.3327 -0.0001,-0.0018 0.0267,-0.4472 0.0315,-0.5092zm-1.655 10.9488l0 0 0.0369 -7.7647c2.8542,-0.352 4.362,0.3747 7.1084,-0.8737 1.5234,-0.6926 3.2617,-2.2741 3.3522,-4.4024 0.2909,-0.496 0.2705,-0.6906 0.1362,-1.2887 -1.3307,-0.1038 -0.9253,-0.0109 -1.04,0.2443 -0.7033,5.6685 -4.9815,5.1298 -10.4694,5.1948 -0.3635,0.3467 -0.2331,1.033 -0.2367,1.8965l-0.0431 5.9128 -4.6826 0.0676 0.0946 1.1631 4.4909 0.0211c1.2604,0.0037 1.0435,0.1409 1.2526,-0.1707zm1.7212 -14.2118l0 0c0.3524,1.1779 2.5805,0.6759 1.9902,-0.8707 -0.4501,-1.179 -2.4618,-0.7044 -1.9902,0.8707zm-0.1269 7.7034l0 0c0.6669,0.1795 3.0883,0.0971 3.8813,-0.0107 6.5405,-0.889 8.2761,-8.7213 5.1767,-12.6953 -0.7929,-1.0164 -3.3792,-3.1039 -5.3037,-2.9431 -3.0961,0.1336 -10.9096,-0.3483 -13.3359,-0.0006l0.0168 23.6273 9.2282 -0.0891c0.1355,-1.1399 0.0525,-2.7816 0.0549,-3.9807l0.0264 -3.4666c0.1115,-0.4398 0.0112,-0.2061 0.2553,-0.4411z"/>
   <path class="fil5" d="M49.0237 28.0861l0.9334 -0.4198c0.4836,0.768 2.7334,5.1229 2.8188,5.6786l-6.5302 0.0096 -0.0696 -1.0819 4.8621 -0.019 -2.0146 -4.1675zm-5.9234 0.8808l0 0c1.5358,-0.1676 2.8861,-1.5582 3.1084,-3.1171l-0.9309 -0.1603c-1.0006,1.6792 -0.7866,1.8389 -3.0023,2.3877 -0.3471,0.2626 -0.3262,0.2077 -0.2702,1.0512 0.6241,0.1686 0.6024,0.204 1.095,-0.1614zm-2.1705 -5.9881l0 0c0.8823,-0.1562 1.4905,-0.5857 2.3155,0.2107 0.4912,0.4741 0.7369,1.5356 0.231,2.2841 -0.3782,0.5599 -2.8164,2.0306 -3.216,-1.4477 -0.2434,-0.5464 -0.2438,-0.3568 -0.0796,-0.9127l0.7491 -0.1344zm4.9438 -5.9413l0 0c-0.3052,-0.071 -0.4671,-0.1628 -0.8931,-0.5688l-0.0322 -1.1477c-0.0832,-0.4684 -2.1685,-4.3598 -2.497,-4.676 -0.3429,-0.2357 -0.1326,0.0467 -0.3354,-0.3578l-0.4436 0.2008c-0.0909,0.0712 -12.2356,23.3434 -12.5257,24.4479l26.3245 -0.018c-0.1134,-0.6549 -9.3901,-17.7239 -9.5976,-17.8805z"/>
   <path class="fil5" d="M151.0293 27.7938l0.3508 -0.218 0.1648 0.3519 2.3406 5.3674 -6.3231 -0.0139 0.0606 -1.0849 4.579 -0.0105c-0.2991,-1.2311 -1.6628,-3.206 -1.6779,-4.2886l0.5052 -0.1034zm-6.7629 1.227l0 0c1.8966,-0.5109 2.8859,-1.3124 3.3697,-3.2376l-0.0077 -0.4496c-0.9474,0.0734 -0.453,0.0943 -1.1208,-0.2237 -0.2094,0.5723 -0.3108,0.3549 -0.2489,1.0686 -0.0452,0.7254 -0.9533,1.5658 -1.7544,1.5319 -0.6212,-0.0412 -1.8826,-0.2602 -1.2039,1.6592l0.966 -0.3488zm-1.7049 -6.2254l0 0c0.0419,-0.0436 0.0901,-0.0938 0.1264,-0.1304l0.5004 -0.5117c0.6871,0.0981 2.0934,0.8051 2.0959,1.5284 0.0018,0.5039 0.0323,0.209 -0.1981,0.4575 0.282,1.5001 -1.2945,2.6183 -2.5865,1.7917 -1.9632,-1.2559 0.0601,-3.1294 0.0619,-3.1355zm-0.9555 -9.511l0 0c0.0144,0.0502 0.0837,0.2279 0.0933,0.2724 0.0079,0.0372 0.0257,0.0883 0.0316,0.1271l-0.0539 0.5034 -0.5926 0.0689 -9.1947 18.027c-0.0116,0.3681 -0.0053,0.5508 -0.0808,0.878 -0.0976,0.4239 -0.1415,-0.2144 -0.1134,0.7178l-0.6122 -0.0789 -0.583 1.0962 26.126 0.039c-0.2064,-0.7596 -1.1318,-2.281 -1.5411,-3.0794l-11.7398 -21.993 -1.7393 3.4217z"/>
   <path class="fil6" d="M45.1207 10.1022c-1.0294,1.6294 -0.6777,2.0667 0.1707,3.5123 1.1221,1.912 11.6982,21.4279 11.8356,22.3525l-25.1866 0.0272c-0.2972,0.2943 -0.5329,0.5747 -0.6033,1.1872l28.3677 -0.0026c-0.215,-0.8477 -14.4039,-26.9303 -14.5841,-27.0766z"/>
   <path class="fil7" d="M5.3856 4.0862c1.0185,0.0804 1.4351,-0.2391 2.6397,-0.0962 1.6381,0.1943 40.2711,0.0558 42.2735,0.0558l135.6468 -0.0543c-0.6172,-0.6937 -19.8821,-0.3808 -22.202,-0.3808l-155.8108 0.002c-0.7959,0.0009 -1.9208,-0.1247 -2.5472,0.4735z"/>
   <path class="fil2" d="M98.4558 25.6084l-0.0008 -3.1151c0.2175,-0.1996 -0.2526,-0.1892 0.6335,-0.2629 0.2046,-0.0171 0.4247,0.0449 0.6296,0.0763 0.1773,0.7578 0.1517,4.0157 -0.0225,4.7853 -1.2527,0.1667 -9.6289,0.2727 -10.4399,-0.078l0.0472 -1.2399c1.9168,-0.5326 7.05,0.3462 9.1528,-0.1656zm-11.3597 -5.4671l0 0 -0.0116 4.5279 10.2815 0.076 0.0514 -4.6701c-1.6043,-0.0636 -9.2616,-0.2068 -10.3213,0.0663zm-2.0735 -2.5405l0 0 -0.0815 4.6374 1.0498 -0.0256 0.037 -3.2214 9.2372 -0.0111 -0.0106 -1.3387 -10.2318 -0.0406zm0.8291 5.7328l0 0c0.3091,0.2705 0.28,0.2089 0.2752,1.1189 -0.0023,0.414 -0.0036,0.8262 -0.0026,1.2403 1.387,0.1121 1.8853,-0.2068 2.1188,0.3293l0.0692 2.0531 12.3816 0.0002 -0.0262 -6.7889c-0.6583,-0.0258 -1.6503,0.1144 -2.1518,-0.1179 -0.3334,-0.3712 -0.1919,-1.4874 -0.1538,-2.0234 -1.476,0.0011 -1.8719,0.2218 -2.021,-0.2965l-0.1125 -2.3504 -12.3443 0.0149 0.0131 6.8257 1.9545 -0.0054z"/>
   <path class="fil8" d="M161.7809 36.1434c-0.1743,0.4331 0.057,0.5007 0.2571,1.0234l19.9438 -0.0285 -0.0351 -24.1626 -1.5928 0.0162 -0.0813 22.9875c-2.7208,0.0567 -17.3013,-0.2698 -18.4917,0.1641z"/>
   <path class="fil6" d="M24.1804 29.0988c1.9028,-0.1558 3.0693,0.0949 4.7512,-0.4246 1.0711,-0.3308 2.5229,-1.3473 3.0671,-2.1201 1.4113,-2.0043 2.1816,-5.7405 1.4637,-7.6879 -0.2745,-0.7449 -0.0325,-0.1601 -0.2494,-0.4612 -0.0285,4.4694 -2.187,7.9269 -6.0931,9.0822 -1.9523,0.5774 -2.5438,0.3054 -4.5039,0.5007 -0.3382,1.4526 -0.0723,6.1713 -0.0867,7.9697 -1.6091,0.0825 -3.3839,0.0054 -5.0244,0.0056 -3.0743,0.0003 -3.8374,-0.3832 -3.4519,1.1384 1.1173,0.2348 8.6469,0.1672 10.0137,0.0198 0.2245,-1.8979 -0.3006,-6.6094 0.1138,-8.0227z"/>
   <path class="fil9" d="M25.7332 9.9412l0.3233 -0.0684c-2.5483,-1.4118 -4.4364,-1.1665 -7.6102,-1.1665 -2.4765,0 -6.4706,-0.2375 -8.7651,0.0512l-0.0002 23.8709 1.1344 0.0521 0.0018 -22.7566c1.9214,-0.2984 11.9889,0.0697 14.9159,0.0172z"/>
   <path class="fil10" d="M87.2629 24.5322c2.5404,-0.3728 6.7349,0.2775 9.756,-0.1195 0.1938,-0.897 0.1894,-3.0477 0.0392,-4.0393l-9.5729 -0.0024c-0.2835,0.706 -0.2259,3.2252 -0.2223,4.1612z"/>
   <path class="fil8" d="M157.6241 34.2539c0.1014,-0.1683 0.0496,0.1074 0.1518,-0.3976l0.037 -1.7213c0.0011,-0.9947 -0.0499,-1.0087 -0.4607,-1.7766 -0.5495,-1.0268 -0.9918,-1.8523 -1.5236,-2.8593l-8.7913 -16.6334c-0.2657,-0.4985 -0.1448,-0.4961 -0.5539,-0.6849 -1.3548,1.8733 -0.4514,2.1588 1.5112,6.0144l9.6294 18.0586z"/>
   <path class="fil11" d="M129.8927 11.1247c-0.2054,0.4995 -0.3562,0.5719 -0.8003,0.8733l-0.0612 22.3322 0.5494 -0.0395c1.1468,-1.47 0.963,-2.9462 0.9629,-5.1297 -0.0006,-6.0562 0.1132,-12.6371 -0.005,-18.5708 -0.4527,0.2355 -0.0467,-0.0065 -0.3339,0.2312 -0.0798,0.066 -0.1315,0.1559 -0.3118,0.3032z"/>
   <path class="fil8" d="M133.1543 36.0641c-0.2191,0.3286 -0.3241,0.619 -0.4692,1.1023l27.9146 -0.0326c0.1185,-1.5597 -1.1926,-1.1227 -2.505,-1.1147 -4.5164,0.0275 -22.4,-0.2064 -24.9404,0.0451z"/>
   <path class="fil2" d="M19.1381 24.4403l-0.0735 7.9373 -4.7056 0.0756 0.0019 0.8679 5.6529 0.0096 0.0369 -7.7647c2.8542,-0.352 4.362,0.3747 7.1084,-0.8737 1.5234,-0.6926 3.2617,-2.2741 3.3522,-4.4024l0.056 -1.1345 -0.9598 0.0901c-0.7033,5.6685 -4.9815,5.1298 -10.4694,5.1948z"/>
   <path class="fil8" d="M128.1252 37.1662c2.7123,0.0241 2.4935,0.1718 2.3719,-1.1582l-22.0884 -0.0039 0.0669 1.0024 0.6587 0.1592c1.9489,0.1674 15.7044,-0.0286 18.991,0.0005z"/>
   <path class="fil12" d="M55.6471 27.1716l0.0977 -0.0839c0.0109,-1.7966 -2.0094,-6.2195 1.6738,-11.9929 1.7376,-2.7238 6.1169,-6.2226 8.8396,-6.1328l-0.1467 -0.1428c-3.6096,-0.339 -7.9233,2.7627 -10.0012,5.9125 -2.209,3.349 -3.1163,8.9957 -0.4631,12.4399z"/>
   <path class="fil12" d="M141.7796 8.969l-0.41 -0.0617 -9.1466 17.9199c-0.7264,1.4003 -0.6456,1.4707 -0.6217,3.2861 0.4831,-0.4818 6.9703,-13.3317 8.2183,-15.777 0.4653,-0.9116 0.8536,-1.7269 1.3068,-2.6142 0.6023,-1.1783 1.2329,-1.5453 0.6532,-2.753z"/>
   <path class="fil9" d="M103.7202 32.5425l0.961 0.053c0.2507,-6.3998 -0.0638,-14.5228 0.0219,-21.3295 0.0078,-0.6264 0.0455,-1.596 -0.9715,-1.9765l-0.0114 23.253z"/>
   <path class="fil2" d="M71.6809 32.5735c-0.7214,0.5334 -1.9339,0.3961 -2.7682,0.5273l-0.0608 0.9402 1.3814 -0.0328 0.7096 -0.028c1.6889,-0.5344 2.5863,-0.5763 4.1011,-1.5682 1.0578,-0.6928 2.1708,-1.7299 2.7423,-2.9371 -0.3764,-0.3751 -0.701,-0.3799 -0.9706,-0.636l-1.0425 -0.3966c-1.0795,-0.5005 -6.4518,-3.0925 -7.2414,-3.0573l-0.2073 0.7949c0.697,0.5597 3.0138,1.4278 3.9563,1.8636 0.7164,0.3313 1.286,0.5923 2.0605,0.934 0.5487,0.2423 1.4664,0.5359 1.8407,0.9682 -0.5365,0.7691 -2.9692,2.7725 -4.5012,2.6279z"/>
   <path class="fil13" d="M157.7459 28.8142c0.1691,-1.26 0.1683,-15.1238 0.0714,-18.1804 -0.0389,-1.2342 -0.3585,-0.9774 -0.9124,-1.6429 -0.2829,1.4915 -0.0654,12.3937 -0.0676,15.463 -0.0015,2.3319 -0.2419,2.6152 0.9086,4.3603z"/>
   <path class="fil6" d="M80.5821 31.5169c0.0007,0.0009 0.4592,0.3646 0.1207,0.6275 -0.4285,0.3326 -0.6294,-0.1573 -0.6671,-0.1966l0.5464 -0.4309zm-2.0737 1.6318l0 0c-0.1748,0.2752 -0.166,0.4128 -0.593,0.5098 -0.5319,0.8358 -3.3172,2.248 -4.4983,2.6125 -2.5298,0.7807 -3.7584,0.6433 -6.5072,0.532l-0.4869 0.0109 0.178 0.3249c2.9189,1.1027 6.8289,0.7879 9.4242,-0.4711 2.0785,-1.0084 4.9806,-3.61 5.5126,-5.6242l-0.799 -0.3216c-0.7696,0.7977 -1.2593,1.9471 -2.2304,2.4267z"/>
   <polygon class="fil12" points="84.9411,22.2381 85.9909,22.2125 86.0279,18.9912 95.2651,18.98 95.2544,17.6413 85.0226,17.6007 "/>
   <path class="fil6" d="M116.8279 20.2928c0.4499,-0.1648 0.674,-0.3446 0.9042,-0.8601 -0.3487,-0.6047 -8.8772,-9.4534 -9.3039,-9.6525 -0.223,2.2008 0.2676,1.9572 1.3953,3.162l7.0044 7.3506z"/>
   <path class="fil9" d="M167.8971 15.2995c0.2118,0.3754 0.4515,0.681 0.8001,0.944l0.0194 -6.5771 8.4885 0.0009 0.0602 -1.1731 -9.4296 -0.046 0.0614 6.8513z"/>
   <path class="fil8" d="M98.4558 25.6084c-0.2635,0.5946 -1.1241,0.2539 -2.0261,0.2548 -1.3067,0.0011 -6.2947,-0.0424 -6.9104,0.1135l-0.0298 0.8757c0.7061,0.2413 8.9151,0.1617 10.0196,0.012 0.2607,-0.7276 0.1039,-1.9124 0.1011,-2.7249 -0.0045,-1.3446 0.3335,-1.9697 -1.1552,-1.6463l0.0008 3.1151z"/>
   <path class="fil12" d="M117.7901 17.675c0.1969,0.4961 0.3274,0.6062 0.7637,0.8486l7.7569 -8.1252c0.5684,-0.6247 0.3493,-0.8996 0.3761,-1.9515 -0.7478,0.424 -1.7199,1.6566 -2.2648,2.2623l-4.4478 4.6506c-0.768,0.8668 -1.3724,1.4525 -2.1841,2.3152z"/>
   <path class="fil6" d="M69.9047 22.351l-0.0853 0.4632 0.406 0.2307c0.7726,0.7549 3.0967,-1.2077 4.7948,-2.1106 0.8406,-0.4468 4.4227,-2.3596 4.8046,-2.9139l-0.4614 -0.8089c-0.7945,0.1466 -8.6401,4.6647 -9.4586,5.1395z"/>
   <path class="fil6" d="M168.7326 19.6003c0.1334,-2.4846 -0.4464,-1.9733 -2.9759,-5.0064 -0.3687,-0.4422 -3.4167,-3.98 -3.8961,-4.2258 -0.8751,1.2725 0.3033,2.07 1.0172,2.8695 0.9718,1.0886 5.3569,6.1606 5.8549,6.3626z"/>
   <path class="fil12" d="M35.2963 18.3667l-0.2611 0.2561c-0.4467,1.2901 -0.3283,1.0856 -0.2986,2.5968 0.4578,-0.3902 0.6588,-0.9644 0.9357,-1.5071 0.286,-0.5602 0.5135,-0.9877 0.8025,-1.555 0.5338,-1.0481 1.0245,-2.0499 1.5803,-3.1223 0.5255,-1.0133 1.0872,-2.0567 1.6082,-3.1021 1.0936,-2.1947 1.2657,-1.9693 0.5932,-3.1589 -0.4611,0.4088 -4.7456,8.7592 -4.9602,9.5925z"/>
   <path class="fil14" d="M127.5254 10.6291c0.5719,0.0808 0.2762,-0.4555 0.4339,0.4612l-0.0521 23.7695 -22.0072 -0.0505c-0.2911,-3.8047 -0.05,-16.0997 -0.0496,-21.4962 0.0002,-0.523 0.005,-1.0473 -0.0004,-1.5701 -0.0146,-1.4211 -0.0244,-1.0987 0.2429,-1.233 -0.2539,-0.3199 0.3716,-0.2673 -0.4111,-0.259l-0.011 24.6943c1.0119,0.2463 21.6466,0.2145 22.4076,-0.0211l0.0439 -21.6111c-0.0007,-0.716 0.1426,-2.4415 -0.1537,-3.062 -0.7972,0.2116 -0.2039,-0.0068 -0.4431,0.3779z"/>
   <path class="fil15" d="M46.2458 33.3545l6.5302 -0.0096c-0.0854,-0.5556 -2.3352,-4.9106 -2.8188,-5.6786l-0.9334 0.4198 2.0146 4.1675 -4.8621 0.019 0.0696 1.0819z"/>
   <path class="fil16" d="M179.2928 34.6536l-20.2279 0.0208 0.009 -23.7858 0.2537 0.0703 -0.2736 -0.4722c-0.1668,0.1975 -0.1233,-0.2582 -0.2156,0.463 -0.1513,1.1863 0.0157,23.6614 0.0557,23.9854l19.9124 0.027c0.902,-0.0086 0.1787,0.0617 0.4861,-0.3085z"/>
   <polygon class="fil15" points="120.3776,32.3175 120.3573,33.4365 126.5782,33.3418 126.56,27.7496 125.5131,27.8008 125.4343,32.2503 "/>
   <path class="fil15" d="M151.5449 27.9277c-0.2601,-0.1341 -0.1541,-0.1047 -0.5156,-0.1339l-0.5052 0.1034c0.0151,1.0826 1.3788,3.0575 1.6779,4.2886l-4.579 0.0105 -0.0606 1.0849 6.3231 0.0139 -2.3406 -5.3674z"/>
   <path class="fil17" d="M21.608 26.8223c-0.2441,0.2349 -0.1438,0.0013 -0.2553,0.4411l-0.0264 3.4666c-0.0024,1.1991 0.0806,2.8407 -0.0549,3.9807l-9.2282 0.0891 -0.0168 -23.6273c2.4263,-0.3477 10.2399,0.1342 13.3359,0.0006 -0.0335,-0.0252 -0.0801,-0.1086 -0.1007,-0.0753l-0.5273 -0.1768c-1.3184,-0.1966 -12.4326,-0.0248 -12.8778,0.0302l-0.0245 23.976 9.688 0.0528 0.0881 -8.1576z"/>
   <path class="fil18" d="M179.2928 34.6536l0.0243 -23.693c-0.4923,0.4714 -0.2142,-0.0716 -0.366,0.7757l0.0123 22.8938 -18.9858 0.0423 -0.203 -0.4863c-0.0887,-0.2649 -0.0223,-0.205 -0.1109,-0.4409 -0.1477,0.4186 -0.0207,0.4803 -0.3137,0.8918 -0.1087,-0.1473 -0.0648,-0.0015 -0.1587,-0.3315 -0.1733,-0.6099 -0.0696,-17.8478 -0.0255,-19.7501 0.0197,-0.8501 0.2111,-0.8101 0.1644,-1.1594 -0.022,-0.1652 -0.1732,0.2691 -0.0785,-0.5076 0.0921,-0.755 0.1241,0.2028 0.1387,-0.4224 0.0115,-0.5051 -0.6388,0.5518 -0.0717,-0.7671l0.6234 -0.0099c-0.17,-0.4 -0.2068,-0.5738 -0.6144,-0.73l-0.2537 -0.0703 -0.009 23.7858 20.2279 -0.0208z"/>
   <path class="fil15" d="M68.8423 18.909c-0.1366,0.1658 -0.0485,0.1283 -0.2642,0.2852 -0.1439,0.1047 -0.2542,0.1329 -0.402,0.2007l0.1428 0.4813c0.0283,0.0322 0.0667,0.0408 0.0859,0.0962 0.0198,0.0565 0.0713,0.0714 0.0986,0.0872 0.3983,0.2337 -0.3678,-0.0962 0.4082,0.1879l7.828 -4.3962c-0.7211,-0.4009 -0.3977,-0.1189 -0.56,-0.4984 0.2063,-0.1385 -0.2973,-0.1935 0.5343,-0.1234 -0.1532,-0.386 -0.0106,-0.2559 -0.3684,-0.3783 -1.2409,0.6233 -6.7522,3.9816 -7.5033,4.0577z"/>
   <path class="fil3" d="M176.6777 32.2486c-1.4974,0.094 -3.7495,-0.2179 -5.0927,0.1264l-0.003 0.7096c1.4511,0.3337 4.4605,0.0176 6.1017,0.0769 0.1184,-1.1568 0.2815,-4.4539 -0.1321,-5.2943l-0.471 -0.0182c-0.3086,0.5387 -0.1822,1.2598 -0.1821,2.2535 0.0002,1.0634 0.207,1.9567 -0.2208,2.1461z"/>
   <path class="fil2" d="M40.9298 22.9788c-0.0253,0.0416 -0.0575,0.094 -0.0763,0.1242 -0.0181,0.0291 -0.051,0.0845 -0.0729,0.1192 -0.0201,0.0322 -0.0485,0.0747 -0.0701,0.1091l-0.4502 0.6947c0.3996,3.4783 2.8378,2.0076 3.216,1.4477 0.5059,-0.7485 0.2601,-1.81 -0.231,-2.2841 -0.825,-0.7965 -1.4332,-0.367 -2.3155,-0.2107z"/>
   <path class="fil2" d="M145.0861 24.1391c-0.3107,-1.2083 -1.0642,-1.5969 -2.5246,-1.3438 -0.0018,0.0061 -2.0252,1.8796 -0.0619,3.1355 1.2921,0.8266 2.8685,-0.2917 2.5865,-1.7917z"/>
   <path class="fil19" d="M87.2629 24.5322c-0.0036,-0.936 -0.0612,-3.4552 0.2223,-4.1612l9.5729 0.0024c0.1502,0.9917 0.1546,3.1423 -0.0392,4.0393 -3.0212,0.397 -7.2156,-0.2533 -9.756,0.1195zm-0.1785 0.1369l0 0 10.2815 0.076 0.0514 -4.6701c-1.6043,-0.0636 -9.2616,-0.2068 -10.3213,0.0663l-0.0116 4.5279z"/>
   <path class="fil12" d="M72.1338 23.8485c0.3547,0.3385 5.4478,2.6329 6.0717,2.771l0.4597 -0.9104c-0.4327,-0.4861 -2.4325,-1.2297 -3.2371,-1.5944 -1.8734,-0.8488 -1.6379,-1.1919 -3.2943,-0.2662z"/>
   <path class="fil2" d="M25.7887 20.2601c-0.0473,0.6166 -0.7155,1.2723 -1.1895,1.5598 -0.7462,0.4528 -1.3862,0.4185 -2.3127,0.4537l-0.6177 0.1082c-0.0048,0.062 -0.0316,0.5074 -0.0315,0.5092 0.0329,0.3595 -0.0361,0.0914 0.1041,0.3327 2.7243,0.7411 4.3569,-0.9178 5.175,-2.6206 -0.044,-0.3983 -0.0063,-0.3105 -0.1585,-0.5697l-0.9692 0.2265z"/>
   <path class="fil20" d="M98.4558 25.6084c-2.1028,0.5117 -7.236,-0.3671 -9.1528,0.1656l-0.0472 1.2399c0.8109,0.3507 9.1872,0.2447 10.4399,0.078 0.1742,-0.7696 0.1998,-4.0275 0.0225,-4.7853 -0.2049,-0.0314 -0.425,-0.0934 -0.6296,-0.0763 -0.8861,0.0738 -0.4161,0.0634 -0.6335,0.2629 1.4887,-0.3234 1.1507,0.3017 1.1552,1.6463 0.0028,0.8124 0.1596,1.9973 -0.1011,2.7249 -1.1045,0.1497 -9.3135,0.2292 -10.0196,-0.012l0.0298 -0.8757c0.6157,-0.1558 5.6037,-0.1123 6.9104,-0.1135 0.902,-0.0009 1.7626,0.3398 2.0261,-0.2548z"/>
   <path class="fil2" d="M146.4887 25.9446c-0.0924,0.4316 0.0302,0.1098 -0.2299,0.2338 -0.0452,0.7254 -0.9533,1.5658 -1.7544,1.5319l-0.5247 0.2459c-0.2268,0.0698 -0.1541,-0.007 -0.4244,0.1064l-0.0793 0.9708 0.7905 -0.0127c1.8966,-0.5109 2.8859,-1.3124 3.3697,-3.2376l-0.6418 -0.0611c-0.352,0.0958 -0.2674,0.0519 -0.5057,0.2226z"/>
   <path class="fil15" d="M42.2755 28.0771l-0.1136 0.9587 0.9383 -0.069c1.5358,-0.1676 2.8861,-1.5582 3.1084,-3.1171l-0.9309 -0.1603c-1.0006,1.6792 -0.7866,1.8389 -3.0023,2.3877z"/>
   <path class="fil2" d="M21.7349 19.1189c0.3524,1.1779 2.5805,0.6759 1.9902,-0.8707 -0.4501,-1.179 -2.4618,-0.7044 -1.9902,0.8707z"/>
   <path class="fil21" d="M27.9411 32.6194l1.2714 -0.0979 1.4511 -3.1912 -0.1718 -0.1667c-1.1915,0.4176 -0.9821,0.3628 -1.5281,1.4159 -0.3304,0.6373 -0.7542,1.361 -1.0226,2.0398z"/>
   <path class="fil14" d="M20.0137 33.3307l-5.6529 -0.0096 -0.0019 -0.8679 4.7056 -0.0756 0.0735 -7.9373c-0.3635,0.3467 -0.2331,1.033 -0.2367,1.8965l-0.0431 5.9128 -4.6826 0.0676 0.0946 1.1631 4.4909 0.0211c1.2604,0.0037 1.0435,0.1409 1.2526,-0.1707z"/>
   <path class="fil22" d="M167.8971 15.2995l-0.0614 -6.8513 9.4296 0.046c-0.3344,-0.4498 -1.6938,-0.2059 -2.2245,-0.2061 -1.613,-0.0003 -6.3217,-0.1021 -7.3175,0.0684 -0.1539,0.9437 -0.0603,2.5281 -0.0607,3.5445l-0.0134 2.6802c0.0267,0.6273 -0.087,0.4596 0.2479,0.7184z"/>
   <path class="fil23" d="M176.6777 32.2486c0.4278,-0.1894 0.221,-1.0826 0.2208,-2.1461 -0.0001,-0.9937 -0.1265,-1.7147 0.1821,-2.2535l0.471 0.0182c0.4137,0.8405 0.2505,4.1375 0.1321,5.2943 -1.6412,-0.0593 -4.6507,0.2568 -6.1017,-0.0769 0.2433,0.3482 -0.2454,0.2951 0.7818,0.3299l5.5165 -0.0578 -0.0006 -5.6325 -1.1184 -0.0428 -0.0836 4.5671z"/>
   <path class="fil24" d="M171.5849 32.375c1.3433,-0.3443 3.5953,-0.0324 5.0927,-0.1264l0.0836 -4.5671c-0.5661,0.4958 -0.2729,3.6076 -0.2673,4.2971 -1.6661,-0.0252 -3.4075,-0.1459 -4.9833,0.0932 -0.3722,0.7545 -0.0915,0.1349 0.0742,0.3032z"/>
   <path class="fil24" d="M70.9428 33.9801l-0.7096 0.028c-0.4808,0.2663 -0.9095,0.3151 -1.4998,0.0918 -0.0171,-0.1687 -0.0661,-0.3722 -0.0382,-0.5458 0.0664,-0.4167 -0.0182,-0.2237 0.2174,-0.4533 0.8343,-0.1312 2.0469,0.0061 2.7682,-0.5273l-2.9619 0.255c-0.1488,0.2649 -0.1602,0.4088 -0.2264,0.8425 -0.0752,0.4945 -0.2035,0.2276 0.0831,0.4496 0.5921,0.606 1.6637,0.3838 1.9304,0.2675 0.4144,-0.1809 0.2439,-0.103 0.4367,-0.4079z"/>
   <path class="fil7" d="M51.7961 19.8575c-0.0108,-0.4918 -0.2739,-1.5969 -0.5545,-2.0137 -0.144,-0.2139 -0.4272,-0.3368 -0.6089,-0.5949 -0.4561,-0.6477 0.1571,-0.6398 -0.6394,-0.6398 0.2671,0.7695 1.2358,2.8059 1.8028,3.2484z"/>
   <path class="fil25" d="M79.9621 27.3701c0.36,0.3571 0.7391,0.5425 1.9082,0.9728 -0.247,1.0228 -1.1056,1.4804 0.1233,1.6687l-0.3487 -0.31c0.2859,-0.5357 0.4096,-0.5953 0.6466,-1.1682 -0.3616,-0.6434 -0.4366,-0.7066 -1.3772,-0.8462l-0.1755 -0.4818c-0.4239,0.262 -0.1709,0.1431 -0.7767,0.1648z"/>
   <path class="fil26" d="M128.5153 7.964c0.2973,-0.145 0.2528,-0.0984 0.5222,-0.2876l0.0641 2.6364c0.5031,-0.316 0.6516,-0.4595 0.9058,-1.0078l-0.6065 0.2378c0.017,-0.7482 0.1227,-1.4396 -0.1185,-2.1182 -0.6587,-0.0389 -0.6866,-0.0272 -0.7671,0.5394z"/>
   <path class="fil24" d="M142.5616 22.7953c1.4603,-0.2531 2.2138,0.1354 2.5246,1.3438 0.2304,-0.2485 0.1999,0.0464 0.1981,-0.4575 -0.0025,-0.7233 -1.4087,-1.4303 -2.0959,-1.5284l-0.5004 0.5117c-0.0363,0.0366 -0.0845,0.0868 -0.1264,0.1304z"/>
   <path class="fil27" d="M180.428 9.7242c-0.5014,-0.5608 -1.1725,-0.0911 -1.6607,-0.3403 -0.0946,-0.0482 -0.4761,-1.2404 -0.0544,-1.9424l-0.4143 -0.1527 0.0329 2.3868 2.0965 0.0486z"/>
   <path class="fil28" d="M86.1707 25.8782l2.0724 0.1438c-0.2334,-0.5361 -0.7317,-0.2172 -2.1188,-0.3293 -0.001,-0.4142 0.0003,-0.8264 0.0026,-1.2403 0.0048,-0.9099 0.0339,-0.8484 -0.2752,-1.1189l0.0761 2.4033 0.2429 0.1415z"/>
   <path class="fil7" d="M80.647 17.1025l0.079 -0.394 0.7991 -0.296 -0.1998 -1.366 -0.4711 -0.0767c0.179,0.573 0.2645,0.467 0.3775,1.0109 -0.4297,0.2976 -0.7462,0.3315 -0.9478,0.7844 0.2757,0.489 0.1171,0.157 0.363,0.3373z"/>
   <path class="fil29" d="M60.3167 13.3755c0.314,0.0191 0.2259,0.0664 0.6466,-0.0567 0.0276,-0.0079 0.4073,-0.1966 0.4344,-0.2167 0.3798,-0.2796 0.411,-0.5726 0.5114,-1.0517 -0.5311,0.2337 -0.4298,0.1698 -0.8731,0.5465 -0.1255,0.1066 -0.2265,0.1717 -0.3412,0.2795 -0.3467,0.3264 -0.1584,0.0914 -0.3782,0.4991z"/>
   <path class="fil30" d="M98.5158 21.1686l-0.0539 -2.2068 -2.1209 -0.1131c0.1491,0.5183 0.545,0.2976 2.021,0.2965 -0.0381,0.5359 -0.1796,1.6522 0.1538,2.0234z"/>
   <path class="fil31" d="M116.0535 21.0765c0.0645,0.7947 0.0392,0.3284 0.3489,0.995l0.9775 -0.0591c0.2089,-0.2761 0.3545,-0.4763 0.4886,-0.9667 -0.4091,0.2401 -0.5763,0.5015 -1.0407,0.7317 -0.2615,-0.3087 -0.3316,-0.4 -0.7744,-0.7009z"/>
   <path class="fil19" d="M144.2665 29.0208l-0.7905 0.0127 0.0793 -0.9708c0.2703,-0.1135 0.1976,-0.0366 0.4244,-0.1064l0.5247 -0.2459c-0.6212,-0.0412 -1.8826,-0.2602 -1.2039,1.6592l0.966 -0.3488z"/>
   <path class="fil32" d="M59.6185 34.0495l0.284 -0.0853c-0.207,-0.3319 -0.5388,-0.6494 -0.813,-1.0409 -0.1262,-0.1801 -0.6479,-0.8673 -0.6628,-0.8834l-0.2849 0.1015c0.2879,0.1292 -0.1323,-0.2704 0.1836,0.1385 0.1066,0.138 0.0786,0.1394 0.1601,0.2888 0.408,0.7473 0.4699,1.0034 1.133,1.4809z"/>
   <path class="fil27" d="M88.3122 28.0751l-0.0692 -2.0531 -2.0724 -0.1438c0.577,0.4364 0.8293,-0.0414 1.7861,0.2459 0.0251,0.5227 -0.0932,1.1311 0.0923,1.6189 0.1315,0.3466 0.0283,0.1807 0.2631,0.3321z"/>
   <path class="fil7" d="M111.7416 11.4095c0.2691,-0.982 -0.4738,-1.1136 -1.2497,-1.2848 0.1862,0.3322 0.2524,0.4181 0.5167,0.6955 0.1428,0.15 0.1571,0.1796 0.314,0.3087 0.3536,0.2918 0.1259,0.1112 0.4191,0.2806z"/>
   <path class="fil7" d="M32.4446 14.6247l1.2766 1.6959c0.1168,-0.636 0.062,-0.5342 -0.2954,-1.0569 -0.1995,-0.2919 -0.2547,-0.4308 -0.4233,-0.6951 -0.1613,-0.0181 0.284,0.1482 -0.5579,0.0561z"/>
   <path class="fil18" d="M45.8736 17.0375c-0.1317,-0.4338 -0.2041,-0.5536 -0.3999,-0.9355 -0.0835,-0.1633 -0.0945,-0.2327 -0.2117,-0.4142 -0.2092,-0.3238 -0.1727,-0.2296 -0.3137,-0.3668l0.0322 1.1477c0.426,0.4059 0.5878,0.4978 0.8931,0.5688z"/>
   <path class="fil7" d="M77.9337 36.9304c0.5349,-0.0222 0.7606,0.0777 1.2288,-0.2349l0.0947 -0.7871c-0.4589,0.1943 -0.2865,0.111 -0.7368,0.4487 -0.1138,0.0854 -0.2862,0.2033 -0.3582,0.2717 -0.1922,0.1827 -0.0866,0.0841 -0.2284,0.3017z"/>
   <path class="fil25" d="M109.5143 9.1158c0.0554,-0.5639 -0.0708,-0.5828 -0.4236,-0.9333 -0.3012,-0.2993 -0.3851,-0.2932 -0.9115,-0.4281 0.2242,0.4165 0.2102,0.3764 0.5794,0.7556 0.1346,0.1381 0.2194,0.2457 0.3075,0.3204 0.3348,0.2835 0.0798,0.1032 0.4482,0.2854z"/>
   <path class="fil33" d="M127.3948 5.9494c0.6199,0.3244 0.0413,1.3093 0.301,2.9433l0.4256 -0.2728c-0.406,-0.197 -0.2851,0.4817 -0.2751,-1.4261 0.003,-0.5434 0.013,-1.0026 -0.0677,-1.5392l-0.3838 0.2948z"/>
   <path class="fil20" d="M66.601 37.139l-0.178 -0.3249 0.4869 -0.0109c-0.3045,-0.1875 0.2831,0.0343 -0.3957,-0.2202l-1.8745 -0.3059c0.7907,0.3966 0.9363,0.6106 1.9612,0.8619z"/>
   <path class="fil24" d="M146.2588 26.1784c0.2601,-0.124 0.1375,0.1978 0.2299,-0.2338l0.0955 -0.3918 0.4102 0.1692 0.6418 0.0611 -0.0077 -0.4496c-0.9474,0.0734 -0.453,0.0943 -1.1208,-0.2237 -0.2094,0.5723 -0.3108,0.3549 -0.2489,1.0686z"/>
   <path class="fil25" d="M80.5234 34.7565c0.5251,-0.1181 0.6908,-0.3234 1.0035,-0.6932l0.0235 -0.7172 -0.29 0.2535c-0.0243,0.0254 -0.0534,0.0622 -0.0771,0.089 -0.487,0.5449 -0.5532,0.6179 -0.6599,1.0679z"/>
   <path class="fil18" d="M120.3573 33.4365l0.0203 -1.119c-0.2959,-0.1937 -0.0135,-0.2118 -0.408,-0.0767l0.0356 0.686c-0.4875,0.3784 -0.2782,0.0719 -0.4964,0.4581l0.8485 0.0515z"/>
   <path class="fil18" d="M164.8511 17.1568c-0.2519,-0.5744 -0.4772,-0.813 -1.0446,-1.1406 0.069,0.577 0.2708,0.9406 0.5908,1.2291l0.4538 -0.0886z"/>
   <path class="fil29" d="M57.5362 17.2353l0.7665 -0.313c-0.0159,-0.4189 0.026,-0.7773 0.0625,-1.0975 -0.2,0.1505 -0.113,0.0291 -0.2849,0.2443 -0.0709,0.0886 -0.1312,0.2018 -0.1818,0.2915 -0.1987,0.3521 -0.2415,0.498 -0.3622,0.8748z"/>
   <path class="fil25" d="M41.678 7.8222l-0.3232 0.0541c-0.4656,-0.8652 0.1194,-0.3727 -0.7418,-0.8386 0.1559,0.4654 0.3612,1.1492 0.8655,1.3994l0.1995 -0.6149z"/>
   <path class="fil18" d="M131.0834 33.7999l0.6122 0.0789c-0.0281,-0.9321 0.0158,-0.2939 0.1134,-0.7178 0.0755,-0.3272 0.0692,-0.5099 0.0808,-0.878l-0.8064 1.5169z"/>
   <path class="fil24" d="M79.7454 29.9863c0.4865,-0.3902 0.5919,-0.5865 0.683,-1.1231l-0.6054 -0.2244c0.1153,0.9978 -0.0206,0.4711 -0.0776,1.3475z"/>
   <path class="fil18" d="M76.8157 28.8388c-0.1284,-0.3017 -0.136,-0.5353 -0.3698,-0.6621 -0.9532,-0.5178 -0.6476,0.2193 -0.6727,0.2656l1.0425 0.3966z"/>
   <path class="fil31" d="M68.3189 19.8763l-0.1428 -0.4813c0.1478,-0.0678 0.2581,-0.096 0.402,-0.2007 0.2157,-0.1569 0.1275,-0.1195 0.2642,-0.2852 -0.7971,0.0017 -0.9788,0.1741 -1.0657,0.9834l0.5423 -0.0162z"/>
   <path class="fil25" d="M164.4589 11.419c-0.0713,-0.7844 -0.1032,-0.984 -0.9064,-1.0017 0.1557,0.3137 -0.003,0.1639 0.3457,0.5525 0.0236,0.0261 0.231,0.2152 0.2441,0.2259 0.1827,0.1494 0.1055,0.0834 0.3167,0.2233z"/>
   <path class="fil31" d="M40.2603 24.026l0.4502 -0.6947c0.0216,-0.0344 0.05,-0.0769 0.0701,-0.1091 0.0219,-0.0346 0.0548,-0.0901 0.0729,-0.1192 0.0188,-0.0302 0.051,-0.0826 0.0763,-0.1242l-0.7491 0.1344c-0.1642,0.5559 -0.1638,0.3664 0.0796,0.9127z"/>
   <path class="fil26" d="M57.599 11.1481c0.4439,-0.1842 0.072,0.0745 0.5694,-0.3181 0.0408,-0.0322 0.2376,-0.2139 0.2523,-0.2296 0.2019,-0.2194 0.0647,-0.0502 0.2421,-0.3216 -0.7048,0.0444 -1.0044,0.1303 -1.0637,0.8693z"/>
   <path class="fil27" d="M143.1069 7.6417l0.3557 -0.114c0.0895,0.2129 0.1384,0.3408 0.2493,0.5465l0.46 0.5812c0.0272,-0.4669 0.0444,-0.4038 -0.2224,-0.8126 -0.2152,-0.3299 -0.3043,-0.3812 -0.6042,-0.5241 -0.3418,0.2095 -0.1019,-0.0132 -0.2385,0.323z"/>
   <path class="fil28" d="M30.5112 20.2899c0.2909,-0.496 0.2705,-0.6906 0.1362,-1.2887 -1.3307,-0.1038 -0.9253,-0.0109 -1.04,0.2443l0.9598 -0.0901 -0.056 1.1345z"/>
   <path class="fil14" d="M70.2332 34.0081l-1.3814 0.0328 0.0608 -0.9402c-0.2355,0.2296 -0.151,0.0366 -0.2174,0.4533 -0.0279,0.1736 0.0211,0.3771 0.0382,0.5458 0.5903,0.2233 1.019,0.1745 1.4998,-0.0918z"/>
   <path class="fil34" d="M104.119 7.8222l0.4284 0.6549 0.2667 -0.7914c0.3754,0.5697 0.0595,0.1281 0.4828,0.3214l-0.2035 -0.4719c-0.731,0.0182 -0.2454,-0.176 -0.6612,0.4641l-0.3131 -0.1771z"/>
   <path class="fil14" d="M43.1003 28.9669l-0.9383 0.069 0.1136 -0.9587c-0.3471,0.2626 -0.3262,0.2077 -0.2702,1.0512 0.6241,0.1686 0.6024,0.204 1.095,-0.1614z"/>
   <path class="fil35" d="M44.1153 9.8318l-0.5266 0.0397c-0.3945,-0.8935 -0.335,-0.4933 -0.5288,-0.6371l0.5871 1.2421 0.4683 -0.6446z"/>
   <path class="fil11" d="M80.0357 31.9479c0.0377,0.0393 0.2386,0.5292 0.6671,0.1966 0.3386,-0.2629 -0.12,-0.6266 -0.1207,-0.6275l-0.5464 0.4309z"/>
   <path class="fil34" d="M60.9004 36.8061l-0.1409 -0.4887 0.3624 -0.0364c-0.1834,-0.2158 0.1838,-0.2162 -0.8269,-0.4653 0.3617,1.1172 0.4144,0.8455 0.6053,0.9905z"/>
   <path class="fil27" d="M34.5878 17.1137l-0.7741 -0.4978c0.1664,0.5406 0.1523,0.7 0.4803,1.0865l0.2938 -0.5887z"/>
   <path class="fil27" d="M75.7172 23.0124c-0.4729,-0.4633 -0.6664,-0.271 -0.6696,-0.8726l-0.5072 0.2004c0.233,0.3408 -0.2087,0.1347 0.4696,0.4709 0.2546,0.1262 0.4648,0.1336 0.7072,0.2013z"/>
   <polygon class="fil24" points="25.7887,20.2601 26.7579,20.0336 27.0756,20.0555 26.8537,19.4758 "/>
   <path class="fil36" d="M4.3862 41.7715c-0.2299,-0.44 -0.1224,-0.283 -0.4574,-0.6025 -0.3799,-0.3625 -0.1715,-0.2122 -0.6124,-0.4357 0.2226,0.6622 0.463,0.804 1.0699,1.0382z"/>
   <path class="fil37" d="M76.7397 15.8514l0.2358 -0.1555 -0.2615 -0.4663c-0.8316,-0.0701 -0.328,-0.0151 -0.5343,0.1234 0.1623,0.3795 -0.161,0.0975 0.56,0.4984z"/>
   <path class="fil26" d="M117.6354 16.2137l0.9029 -1.0114c-0.8329,0.0941 -0.7991,0.11 -0.9029,1.0114z"/>
   <path class="fil26" d="M124.447 8.948c0.3257,-0.1677 0.2161,-0.0213 0.5209,-0.3633 0.2125,-0.2386 0.1981,-0.2914 0.3228,-0.5392 -0.4326,0.1197 -0.1972,-0.0977 -0.5621,0.2903 -0.4296,0.4564 -0.164,0.0434 -0.2815,0.6122z"/>
   <path class="fil31" d="M141.0845 14.2561l0.5926 -0.0689 0.0539 -0.5034c-0.0059,-0.0389 -0.0237,-0.0899 -0.0316,-0.1271 -0.0095,-0.0445 -0.0789,-0.2222 -0.0933,-0.2724l-0.5216 0.9718z"/>
   <path class="fil38" d="M4.3099 40.7981c-0.2046,-0.8169 0.0226,-0.3632 -0.5951,-0.6015 0.1473,0.863 -0.3963,0.5929 0.5951,0.6015z"/>
   <path class="fil24" d="M161.3595 13.2532c-0.091,-0.2037 -0.0336,-0.2333 -0.2383,-0.4559 -0.4407,-0.4793 0.0262,-0.0451 -0.4291,-0.2824l0.0709 0.6586 0.5965 0.0797z"/>
   <path class="fil27" d="M144.6039 9.5483l0.4017 0.9274 0.59 -1.0746 -0.431 0.4235c-0.0178,-0.0268 -0.0623,0.0638 -0.0933,0.096 -0.118,-0.121 -0.3221,-0.2527 -0.4674,-0.3723z"/>
   <path class="fil25" d="M79.6919 35.5418l0.551 -0.1521 0.2804 -0.6332c-0.289,0.1113 -0.16,-0.0321 -0.4943,0.28 -0.3183,0.2974 -0.2149,0.2577 -0.3371,0.5053z"/>
   <path class="fil39" d="M129.5806 34.2907l-0.5494 0.0395 0.0782 0.9147c0.1309,-0.3636 0.3007,-0.5425 0.4712,-0.9542z"/>
   <path class="fil24" d="M108.6778 13.3963c-0.2496,-0.5434 -0.1744,-0.4823 -0.7045,-0.7347 0.0541,0.6142 0.1305,0.5732 0.7045,0.7347z"/>
   <path class="fil40" d="M56.1059 27.8781l-0.252 0.0863 0.4939 0.6918c0.0162,-0.0296 0.0695,0.0604 0.1038,0.0909 -0.0472,-1.1494 -0.1594,-0.7346 -0.3457,-0.869z"/>
   <path class="fil26" d="M158.2447 8.1345l0.2531 -0.0171 -0.2035 -0.6696c-0.8328,0.0178 -0.3703,0.0719 -0.5367,0.192 0.3817,0.0013 0.3636,0.2261 0.4871,0.4947z"/>
   <path class="fil19" d="M41.6724 10.488l0.4436 -0.2008c0.2028,0.4045 -0.0074,0.1221 0.3354,0.3578 -0.1599,-0.4605 0.005,-0.1571 -0.1611,-0.4516 -0.2552,-0.4515 -0.1696,-0.2265 -0.3076,-0.3531l-0.3102 0.6477z"/>
   <path class="fil24" d="M124.8286 13.7081c0.5649,-0.1584 0.5532,-0.2047 0.6997,-0.73 -0.3223,0.1647 -0.0771,-0.1199 -0.4428,0.2765 -0.2963,0.321 -0.1335,0.1943 -0.2569,0.4535z"/>
   <path class="fil36" d="M3.227 4.3585c0.5524,-0.3449 0.5584,-0.3223 0.7612,-0.8606 -0.5113,0.2345 -0.5806,0.3258 -0.7612,0.8606z"/>
   <path class="fil41" d="M27.9411 32.6194c0.1353,0.0949 0.069,0.1236 0.3939,0.1722 0.0552,0.0081 0.2479,0.0087 0.3044,0.0031 0.3802,-0.0388 0.3414,-0.0615 0.5731,-0.2732l-1.2714 0.0979z"/>
   <path class="fil42" d="M58.1417 32.1414l0.2849 -0.1015c-0.2531,-0.5836 -0.2462,-0.514 -0.6311,-0.8423l0.3462 0.9438z"/>
   <path class="fil43" d="M129.0924 11.998c0.4441,-0.3014 0.5949,-0.3738 0.8003,-0.8733 -0.2555,0.1362 -0.3107,0.1383 -0.4914,0.3249 -0.4004,0.4132 -0.1558,0.119 -0.3089,0.5484z"/>
   <path class="fil44" d="M55.6471 27.1716c0.1011,0.3795 0.1485,0.4787 0.2068,0.7929l0.252 -0.0863c-0.0286,-0.1268 -0.0725,-0.3586 -0.1209,-0.4656 -0.1172,-0.2589 -0.1138,-0.1818 -0.2403,-0.3249l-0.0977 0.0839z"/>
   <path class="fil36" d="M187.7237 3.6798c-0.2148,-0.5383 -0.5263,-0.6875 -1.0818,-0.7982 0.0274,0.0352 0.0669,0.0458 0.082,0.1056l0.9998 0.6926z"/>
   <path class="fil45" d="M66.2581 8.962l0.6987 -0.1394c-0.1633,-0.1301 0.2575,-0.2046 -0.3558,-0.1772 -0.8743,0.0393 -0.2136,0.0035 -0.4896,0.1738l0.1467 0.1428z"/>
   <path class="fil46" d="M157.7893 8.0615l-0.0317 -0.4217 -0.503 0.0012c0.1283,0.2535 0.0239,0.3664 0.4494,0.444 0.0132,0.0024 0.0574,-0.0137 0.0853,-0.0235z"/>
   <path class="fil47" d="M4.9008 0.3107c0.1032,-0.0134 0.504,-0.0382 0.604,-0.0541l0.702 -0.2542c-0.1985,0.0042 -0.5197,-0.0056 -0.7255,0.0311 -0.0556,0.01 -0.2007,0.0438 -0.2487,0.0618 -0.2339,0.0879 -0.223,0.1342 -0.3318,0.2154z"/>
   <path class="fil22" d="M25.7332 9.9412c0.0517,0.0525 -0.1747,0.1607 0.2771,0.2126 1.0117,0.1162 0.1438,0.0828 0.5129,-0.1551l-0.4668 -0.1259 -0.3233 0.0684z"/>
   <path class="fil48" d="M59.9025 33.9642l-0.284 0.0853c0.0318,0.0312 0.0716,0.0742 0.0959,0.0931 0.0238,0.0184 0.0693,0.0649 0.0985,0.0854l0.5215 0.2456c-0.2775,-0.8086 -0.1142,-0.3573 -0.4318,-0.5094z"/>
   <path class="fil23" d="M157.7893 8.0615l0.4554 0.073c-0.1236,-0.2686 -0.1054,-0.4934 -0.4871,-0.4947l0.0317 0.4217z"/>
   <path class="fil36" d="M187.1896 41.732c0.4263,-0.0744 0.5517,0.0366 0.6449,-0.4215 -0.5744,0.0754 -0.0388,-0.0934 -0.3925,0.1114 -0.265,0.1534 -0.081,0.0874 -0.2524,0.31z"/>
   <path class="fil28" d="M68.9116 20.2477c-0.776,-0.2841 -0.0099,0.0458 -0.4082,-0.1879 -0.0273,-0.0159 -0.0788,-0.0307 -0.0986,-0.0872 -0.0193,-0.0554 -0.0576,-0.064 -0.0859,-0.0962l0.1568 0.5272c0.8219,0.0173 0.1783,0.0392 0.4359,-0.1558z"/>
   <polygon class="fil49" points="70.2254,23.0449 69.8193,22.8142 69.9047,22.351 69.4543,22.78 "/>
   <path class="fil14" d="M21.6687 22.3819l0.6177 -0.1082c-0.3175,-0.2139 0.4055,-0.1544 -0.4301,-0.2143l-0.1875 0.3225z"/>
   <path class="fil28" d="M27.8393 30.356c0.2625,-0.3404 0.2062,0.4283 0.2167,-0.4306l-0.5023 0.213 0.2856 0.2176z"/>
   <path class="fil50" d="M146.2722 8.1695l0.4395 -0.1472c0,-0.7542 -0.3461,-0.0533 -0.4395,0.1472z"/>
   <path class="fil51" d="M133.5996 21.6876c0.0314,-0.0313 0.0843,-0.1155 0.0965,-0.0916 0.012,0.0241 0.0715,-0.0739 0.0864,-0.1021 0.1468,-0.2776 0.0568,-0.0314 0.1626,-0.4124l-0.3148 0.1004 -0.0308 0.5057z"/>
   <path class="fil52" d="M30.6635 29.3303l0.1683 -0.1922c0.0147,-0.3179 0.0784,-0.2324 -0.258,-0.1778l-0.082 0.2033 0.1718 0.1667z"/>
   <path class="fil14" d="M26.9164 20.6033c0.0629,-0.101 0.1009,-0.1529 0.1612,-0.3354 0.0097,-0.0292 0.002,-0.1602 -0.002,-0.2123l-0.3178 -0.0219c0.1522,0.2591 0.1146,0.1714 0.1585,0.5697z"/>
   <path class="fil53" d="M131.852 36.3265c0.1121,-0.5206 0.0589,-0.041 -0.1178,-0.3203l-0.1415 0.679c0.0035,-0.0096 0.2434,-0.2846 0.2592,-0.3587z"/>
   <polygon class="fil28" points="79.494,27.3311 79.374,26.8046 79.136,27.1536 "/>
   <path class="fil33" d="M146.4887 25.9446c0.2384,-0.1707 0.1537,-0.1268 0.5057,-0.2226l-0.4102 -0.1692 -0.0955 0.3918z"/>
   <path class="fil33" d="M151.5449 27.9277l-0.1648 -0.3519 -0.3508 0.218c0.3614,0.0292 0.2554,-0.0002 0.5156,0.1339z"/>
   <path class="fil44" d="M141.3696 8.9072l0.41 0.0617c-0.0896,-0.1253 -0.0379,-0.2141 -0.1841,-0.3144l-0.2259 0.2526z"/>
   <path class="fil45" d="M30.8318 29.1381l0.1573 -0.3159c-0.798,-0.1356 -0.1506,-0.0725 -0.4154,0.1381 0.3364,-0.0546 0.2727,-0.1401 0.258,0.1778z"/>
   <path class="fil43" d="M77.9154 33.6586c0.427,-0.097 0.4182,-0.2346 0.593,-0.5098l-0.593 0.5098z"/>
   <path class="fil54" d="M187.8345 41.3105l0.2417 -0.4542c-0.2794,0.2003 -0.2156,-0.255 -0.265,0.2097l0.0233 0.2445z"/>
   <path class="fil54" d="M3.397 40.7619c-0.1409,-0.4255 -0.0054,-0.2959 -0.3482,-0.4816l0.3482 0.4816z"/>
   <path class="fil55" d="M110.2049 9.8643l-0.4415 -0.4371c0.1869,0.3626 0.0278,0.2305 0.4415,0.4371z"/>
   <polygon class="fil48" points="35.0352,18.6228 35.2963,18.3667 "/>
  </g>
 </g>
</svg>
